<?xml version="1.0" standalone="no"?>
<!DOCTYPE svg PUBLIC "-//W3C//DTD SVG 1.1//EN" "http://www.w3.org/Graphics/SVG/1.1/DTD/svg11.dtd">
<svg width="42mm" height="22mm" viewBox="-1 -21 42 22" xmlns="http://www.w3.org/2000/svg" version="1.1">
<title>OpenSCAD Model</title>
<path d="
M 8.66637,0.197514 L 8.66637,-0.197514 L 8.79463,-0.571137 L 9.03726,-0.882869 L 9.36797,-1.09893 L 9.7509,-1.1959
 L 10.1446,-1.16328 L 10.5063,-1.0046 L 10.797,-0.737055 L 10.985,-0.389639 L 11.05,-0 L 11.0166,0.2
 L 29.315,0.2 L 29.25,-0 L 29.3646,-0.352671 L 29.6646,-0.570634 L 30.0354,-0.570634 L 30.3354,-0.352671
 L 30.45,-0 L 30.385,0.2 L 40,0.2 L 40.2,-0 L 40.2,-8.72888 L 39.9009,-8.7041
 L 39.518,-8.80107 L 39.1873,-9.01713 L 38.9446,-9.32886 L 38.8164,-9.70249 L 38.8164,-10.0975 L 38.9446,-10.4711
 L 39.1873,-10.7829 L 39.518,-10.9989 L 39.9009,-11.0959 L 40.2,-11.0711 L 40.2,-19.95 L 40,-20.15
 L 30.45,-20.15 L 30.45,-19.8 L 30.3354,-19.4473 L 30.0354,-19.2294 L 29.6646,-19.2294 L 29.3646,-19.4473
 L 29.25,-19.8 L 29.25,-20.15 L 11.05,-20.15 L 11.05,-19.8 L 10.985,-19.4104 L 10.797,-19.0629
 L 10.5063,-18.7954 L 10.1446,-18.6367 L 9.7509,-18.6041 L 9.36797,-18.7011 L 9.03726,-18.9171 L 8.79463,-19.2289
 L 8.66637,-19.6025 L 8.66637,-20.15 L 0,-20.15 L -0.2,-19.95 L -0.2,-10.4706 L 0.0854102,-10.4706
 L 0.38541,-10.2527 L 0.5,-9.9 L 0.38541,-9.54733 L 0.0854102,-9.32937 L -0.2,-9.32937 L -0.2,-0
 L 0,0.2 L 8.66722,0.2 z
M 4.24737,-1.31006e-15 L 3.72923,-9.30187e-05 L 3.25724,-0.000413949 L 2.82919,-0.0010256 L 2.44286,-0.0019908 L 2.09605,-0.00337234
 L 1.78653,-0.00523304 L 1.51209,-0.00763571 L 1.27052,-0.0106432 L 1.0596,-0.0143182 L 0.87712,-0.0187237 L 0.720859,-0.0239224
 L 0.588605,-0.0299771 L 0.478144,-0.0369506 L 0.387259,-0.0449059 L 0.313737,-0.0539055 L 0.255363,-0.0640125 L 0.209922,-0.0752896
 L 0.175198,-0.0877995 L 0.148978,-0.101605 L 0.129046,-0.116769 L 0.111539,-0.134765 L 0.0956897,-0.15742 L 0.081416,-0.18759
 L 0.0686376,-0.228126 L 0.0572735,-0.281883 L 0.0472429,-0.351712 L 0.0384649,-0.440467 L 0.0308587,-0.551001 L 0.0243435,-0.686167
 L 0.0188383,-0.848819 L 0.0142624,-1.04181 L 0.0105348,-1.26799 L 0.0075747,-1.53021 L 0.00530126,-1.83134 L 0.00363361,-2.17421
 L 0.00249089,-2.56169 L 0.00179225,-2.99662 L 0.00145683,-3.48186 L 0.00140377,-4.02027 L 0.00155222,-4.61469 L 0.00303389,-8.99583
 L 0.226554,-9.10167 L 0.325095,-9.15544 L 0.413263,-9.21785 L 0.491058,-9.28794 L 0.558481,-9.36476 L 0.615531,-9.44734
 L 0.662208,-9.53472 L 0.698513,-9.62594 L 0.724445,-9.72005 L 0.740004,-9.81607 L 0.74519,-9.91306 L 0.740004,-10.01
 L 0.724445,-10.1061 L 0.698513,-10.2002 L 0.662208,-10.2914 L 0.615531,-10.3788 L 0.558481,-10.4614 L 0.491058,-10.5382
 L 0.413263,-10.6083 L 0.325095,-10.6707 L 0.226554,-10.7244 L 0.00303389,-10.8303 L 0.00155222,-15.2172 L 2.84217e-15,-19.6042
 L 0.185914,-19.7504 L 0.212964,-19.771 L 0.241171,-19.7895 L 0.273481,-19.8061 L 0.31284,-19.8209 L 0.362194,-19.834
 L 0.424488,-19.8455 L 0.502668,-19.8555 L 0.599681,-19.8641 L 0.718472,-19.8714 L 0.861986,-19.8775 L 1.03317,-19.8826
 L 1.23497,-19.8867 L 1.47033,-19.8899 L 1.7422,-19.8923 L 2.05352,-19.8941 L 2.40724,-19.8953 L 2.8063,-19.896
 L 3.25366,-19.8965 L 3.75225,-19.8966 L 4.30502,-19.8967 L 8.23828,-19.8967 L 8.31554,-19.5968 L 8.34704,-19.4888
 L 8.38488,-19.3842 L 8.42878,-19.2832 L 8.47845,-19.186 L 8.53362,-19.0929 L 8.59399,-19.0041 L 8.65928,-18.9198
 L 8.72921,-18.8404 L 8.8035,-18.7659 L 8.88187,-18.6966 L 8.96402,-18.6329 L 9.04968,-18.5749 L 9.13857,-18.5228
 L 9.23039,-18.4769 L 9.32487,-18.4374 L 9.42172,-18.4046 L 9.52066,-18.3786 L 9.62141,-18.3598 L 9.72368,-18.3483
 L 9.82719,-18.3444 L 9.92862,-18.3484 L 10.0299,-18.3601 L 10.1306,-18.3792 L 10.2304,-18.4053 L 10.3288,-18.4382
 L 10.4254,-18.4776 L 10.5198,-18.5231 L 10.6116,-18.5745 L 10.7005,-18.6313 L 10.7859,-18.6934 L 10.8675,-18.7603
 L 10.9448,-18.8318 L 11.0176,-18.9076 L 11.0853,-18.9872 L 11.1475,-19.0705 L 11.2039,-19.1572 L 11.254,-19.2468
 L 11.2975,-19.339 L 11.3339,-19.4337 L 11.3628,-19.5303 L 11.4565,-19.8961 L 19.857,-19.9143 L 20.5445,-19.9159
 L 21.2193,-19.9175 L 21.8791,-19.9192 L 22.5216,-19.9209 L 23.1446,-19.9227 L 23.7457,-19.9246 L 24.3227,-19.9265
 L 24.8733,-19.9284 L 25.3951,-19.9303 L 25.886,-19.9323 L 26.3435,-19.9342 L 26.7655,-19.9361 L 27.1495,-19.938
 L 27.4934,-19.9399 L 27.7949,-19.9417 L 28.0515,-19.9435 L 28.2611,-19.9452 L 28.4214,-19.9468 L 28.5301,-19.9484
 L 28.5848,-19.9499 L 28.6305,-19.9522 L 28.6717,-19.9541 L 28.7088,-19.9553 L 28.742,-19.9558 L 28.7716,-19.9553
 L 28.7978,-19.9537 L 28.8209,-19.9509 L 28.8412,-19.9467 L 28.8588,-19.9409 L 28.8742,-19.9335 L 28.8874,-19.9242
 L 28.8989,-19.9129 L 28.9087,-19.8995 L 28.9173,-19.8837 L 28.9249,-19.8656 L 28.9316,-19.8448 L 28.9379,-19.8213
 L 28.9439,-19.7948 L 28.9498,-19.7653 L 28.9561,-19.7326 L 28.971,-19.6706 L 28.9922,-19.6095 L 29.0192,-19.5499
 L 29.0516,-19.4918 L 29.0889,-19.4357 L 29.1308,-19.3817 L 29.1768,-19.3303 L 29.2266,-19.2817 L 29.2797,-19.2361
 L 29.3356,-19.1939 L 29.3941,-19.1554 L 29.4546,-19.1209 L 29.5167,-19.0907 L 29.5801,-19.0649 L 29.6444,-19.0441
 L 29.709,-19.0283 L 29.7736,-19.018 L 29.8378,-19.0134 L 29.9011,-19.0148 L 29.9633,-19.0226 L 30.025,-19.0354
 L 30.085,-19.0513 L 30.143,-19.0703 L 30.1989,-19.0921 L 30.2525,-19.1167 L 30.3037,-19.1438 L 30.3523,-19.1735
 L 30.3983,-19.2054 L 30.4415,-19.2395 L 30.4817,-19.2757 L 30.5188,-19.3138 L 30.5526,-19.3536 L 30.5831,-19.3952
 L 30.61,-19.4382 L 30.6332,-19.4826 L 30.6527,-19.5282 L 30.6681,-19.5749 L 30.6795,-19.6226 L 30.6867,-19.6711
 L 30.6894,-19.7203 L 30.6916,-19.9319 L 34.9426,-19.9118 L 35.3642,-19.9096 L 35.7642,-19.9071 L 36.1425,-19.9044
 L 36.4995,-19.9014 L 36.8351,-19.8981 L 37.1496,-19.8945 L 37.4429,-19.8907 L 37.7153,-19.8865 L 37.9668,-19.8821
 L 38.1976,-19.8774 L 38.4078,-19.8724 L 38.5975,-19.8671 L 38.7668,-19.8615 L 38.9158,-19.8556 L 39.0446,-19.8494
 L 39.1534,-19.8429 L 39.2423,-19.8361 L 39.3113,-19.829 L 39.3607,-19.8216 L 39.3905,-19.8138 L 39.4255,-19.7989
 L 39.4594,-19.7821 L 39.492,-19.7638 L 39.5233,-19.7438 L 39.5533,-19.7222 L 39.5819,-19.6992 L 39.6089,-19.6749
 L 39.6345,-19.6492 L 39.6585,-19.6222 L 39.6809,-19.5941 L 39.7016,-19.5648 L 39.7206,-19.5346 L 39.7378,-19.5033
 L 39.7532,-19.4712 L 39.7667,-19.4382 L 39.7782,-19.4045 L 39.7878,-19.3701 L 39.7953,-19.3351 L 39.8007,-19.2996
 L 39.8039,-19.2636 L 39.805,-19.2497 L 39.8063,-19.2382 L 39.8079,-19.2291 L 39.8098,-19.2223 L 39.8119,-19.2178
 L 39.8143,-19.2155 L 39.8168,-19.2155 L 39.8196,-19.2176 L 39.8226,-19.222 L 39.8257,-19.2284 L 39.829,-19.2369
 L 39.8325,-19.2475 L 39.8361,-19.2602 L 39.8398,-19.2748 L 39.8436,-19.2914 L 39.8476,-19.3099 L 39.8516,-19.3304
 L 39.8556,-19.3527 L 39.8597,-19.3768 L 39.8639,-19.4028 L 39.8679,-19.4139 L 39.8718,-19.3956 L 39.8757,-19.3491
 L 39.8794,-19.2753 L 39.8829,-19.1753 L 39.8863,-19.0503 L 39.8896,-18.9013 L 39.8926,-18.7294 L 39.8955,-18.5357
 L 39.8982,-18.3213 L 39.9007,-18.0872 L 39.9029,-17.8346 L 39.905,-17.5645 L 39.9067,-17.278 L 39.9082,-16.9761
 L 39.9094,-16.6601 L 39.9104,-16.3309 L 39.911,-15.9896 L 39.9114,-15.6374 L 39.9114,-15.2753 L 39.9111,-14.9137
 L 39.9105,-14.5632 L 39.9096,-14.2248 L 39.9085,-13.8995 L 39.9071,-13.5883 L 39.9054,-13.2924 L 39.9036,-13.0126
 L 39.9015,-12.7501 L 39.8992,-12.5059 L 39.8967,-12.2811 L 39.894,-12.0766 L 39.8912,-11.8935 L 39.8882,-11.7329
 L 39.885,-11.5958 L 39.8818,-11.4831 L 39.8784,-11.3961 L 39.8749,-11.3356 L 39.8713,-11.3028 L 39.8676,-11.2986
 L 39.8639,-11.3242 L 39.8601,-11.364 L 39.8563,-11.402 L 39.8526,-11.438 L 39.8489,-11.472 L 39.8452,-11.5039
 L 39.8416,-11.5335 L 39.838,-11.5609 L 39.8346,-11.5858 L 39.8312,-11.6083 L 39.828,-11.6282 L 39.8249,-11.6454
 L 39.822,-11.6598 L 39.8192,-11.6714 L 39.8166,-11.6801 L 39.8142,-11.6858 L 39.8121,-11.6883 L 39.8101,-11.6876
 L 39.8084,-11.6837 L 39.807,-11.6763 L 39.8058,-11.6655 L 39.8039,-11.6481 L 39.8012,-11.6317 L 39.7974,-11.6165
 L 39.7926,-11.6022 L 39.7867,-11.5888 L 39.7796,-11.5764 L 39.7712,-11.5647 L 39.7614,-11.5539 L 39.7502,-11.5438
 L 39.7374,-11.5343 L 39.723,-11.5255 L 39.707,-11.5172 L 39.6891,-11.5094 L 39.6694,-11.5021 L 39.6478,-11.4952
 L 39.6241,-11.4886 L 39.5984,-11.4824 L 39.5704,-11.4763 L 39.5403,-11.4705 L 39.5077,-11.4647 L 39.4531,-11.4534
 L 39.397,-11.438 L 39.3398,-11.4185 L 39.2819,-11.3953 L 39.2233,-11.3686 L 39.1645,-11.3385 L 39.1058,-11.3052
 L 39.0473,-11.2691 L 38.9894,-11.2303 L 38.9324,-11.1889 L 38.8766,-11.1453 L 38.8222,-11.0997 L 38.7695,-11.0522
 L 38.7189,-11.003 L 38.6705,-10.9525 L 38.6247,-10.9007 L 38.5818,-10.848 L 38.542,-10.7944 L 38.5056,-10.7403
 L 38.473,-10.6859 L 38.4026,-10.5461 L 38.347,-10.4043 L 38.3059,-10.2611 L 38.279,-10.1174 L 38.2659,-9.97399
 L 38.2663,-9.83159 L 38.2797,-9.69101 L 38.3059,-9.55303 L 38.3446,-9.41843 L 38.3953,-9.288 L 38.4577,-9.16251
 L 38.5315,-9.04277 L 38.6164,-8.92953 L 38.7119,-8.8236 L 38.8178,-8.72575 L 38.9336,-8.63677 L 39.0591,-8.55744
 L 39.194,-8.48854 L 39.3377,-8.43086 L 39.4901,-8.38518 L 39.5182,-8.37779 L 39.5451,-8.37008 L 39.5709,-8.36206
 L 39.5955,-8.35375 L 39.6189,-8.34515 L 39.6411,-8.3363 L 39.662,-8.3272 L 39.6815,-8.31787 L 39.6998,-8.30833
 L 39.7167,-8.29859 L 39.7323,-8.28866 L 39.7464,-8.27857 L 39.7591,-8.26832 L 39.7704,-8.25794 L 39.7802,-8.24744
 L 39.7885,-8.23683 L 39.7952,-8.22614 L 39.8004,-8.21537 L 39.804,-8.20455 L 39.806,-8.19369 L 39.8072,-8.18605
 L 39.8087,-8.18204 L 39.8104,-8.18157 L 39.8123,-8.18451 L 39.8145,-8.19076 L 39.8169,-8.20021 L 39.8195,-8.21276
 L 39.8223,-8.22829 L 39.8252,-8.24669 L 39.8283,-8.26786 L 39.8315,-8.29169 L 39.8348,-8.31806 L 39.8382,-8.34688
 L 39.8418,-8.37802 L 39.8454,-8.41139 L 39.849,-8.44688 L 39.8527,-8.48437 L 39.8564,-8.52375 L 39.8602,-8.56492
 L 39.8639,-8.60778 L 39.8676,-8.63621 L 39.8712,-8.63487 L 39.8748,-8.60478 L 39.8783,-8.54699 L 39.8816,-8.4625
 L 39.8849,-8.35236 L 39.888,-8.21759 L 39.891,-8.05922 L 39.8939,-7.87828 L 39.8966,-7.67578 L 39.8991,-7.45277
 L 39.9014,-7.21027 L 39.9035,-6.94931 L 39.9054,-6.67091 L 39.9071,-6.3761 L 39.9086,-6.06592 L 39.9098,-5.74138
 L 39.9107,-5.40352 L 39.9114,-5.05337 L 39.9117,-4.69194 L 39.9118,-4.3297 L 39.9115,-3.97712 L 39.9109,-3.6353
 L 39.91,-3.30533 L 39.9088,-2.9883 L 39.9073,-2.68531 L 39.9055,-2.39745 L 39.9035,-2.12581 L 39.9013,-1.87148
 L 39.8988,-1.63557 L 39.8961,-1.41915 L 39.8932,-1.22332 L 39.8901,-1.04918 L 39.8868,-0.897816 L 39.8833,-0.770323
 L 39.8797,-0.667794 L 39.8759,-0.591321 L 39.872,-0.541997 L 39.868,-0.520915 L 39.8639,-0.529167 L 39.8573,-0.565981
 L 39.8512,-0.599042 L 39.8457,-0.628385 L 39.8407,-0.654044 L 39.8362,-0.676056 L 39.8322,-0.694454 L 39.8285,-0.709275
 L 39.8253,-0.720553 L 39.8223,-0.728324 L 39.8197,-0.732622 L 39.8174,-0.733484 L 39.8153,-0.730944 L 39.8134,-0.725038
 L 39.8117,-0.7158 L 39.8102,-0.703266 L 39.8087,-0.687471 L 39.8074,-0.66845 L 39.806,-0.646238 L 39.8047,-0.620872
 L 39.8034,-0.592384 L 39.802,-0.57346 L 39.7995,-0.553833 L 39.796,-0.533597 L 39.7915,-0.512844 L 39.7861,-0.491669
 L 39.7798,-0.470163 L 39.7726,-0.448422 L 39.7646,-0.426537 L 39.7558,-0.404602 L 39.7463,-0.382711 L 39.7362,-0.360956
 L 39.7253,-0.339431 L 39.7139,-0.318229 L 39.7019,-0.297443 L 39.6893,-0.277166 L 39.6763,-0.257493 L 39.6629,-0.238515
 L 39.649,-0.220327 L 39.6348,-0.20302 L 39.6203,-0.18669 L 39.4473,-1.31006e-15 L 30.6917,-1.31006e-15 L 30.6917,-0.170956
 L 30.691,-0.185936 L 30.6889,-0.201903 L 30.6856,-0.218768 L 30.681,-0.236442 L 30.6752,-0.254835 L 30.6682,-0.273857
 L 30.6601,-0.293421 L 30.651,-0.313435 L 30.6409,-0.333812 L 30.6298,-0.354462 L 30.6178,-0.375296 L 30.6049,-0.396224
 L 30.5913,-0.417157 L 30.5769,-0.438005 L 30.5617,-0.458681 L 30.546,-0.479093 L 30.5296,-0.499154 L 30.5126,-0.518773
 L 30.4952,-0.537862 L 30.4772,-0.556331 L 30.4054,-0.621855 L 30.3303,-0.678395 L 30.2524,-0.72605 L 30.1724,-0.764924
 L 30.0907,-0.795118 L 30.0078,-0.816733 L 29.9243,-0.829871 L 29.8407,-0.834634 L 29.7575,-0.831124 L 29.6753,-0.819441
 L 29.5946,-0.799688 L 29.5159,-0.771966 L 29.4398,-0.736378 L 29.3667,-0.693024 L 29.2972,-0.642006 L 29.2318,-0.583426
 L 29.1711,-0.517386 L 29.1156,-0.443987 L 29.0658,-0.363331 L 29.0222,-0.275519 L 28.9006,-1.31006e-15 L 11.4558,-1.31006e-15
 L 11.338,-0.373733 L 11.2744,-0.543495 L 11.1957,-0.700045 L 11.1032,-0.843106 L 10.9982,-0.972401 L 10.882,-1.08765
 L 10.7558,-1.18858 L 10.621,-1.27491 L 10.4788,-1.34637 L 10.3306,-1.40267 L 10.1777,-1.44355 L 10.0214,-1.46872
 L 9.86291,-1.4779 L 9.70359,-1.47082 L 9.54473,-1.44721 L 9.38762,-1.40678 L 9.23357,-1.34926 L 9.08388,-1.27436
 L 8.93983,-1.18182 L 8.80274,-1.07136 L 8.67389,-0.942693 L 8.65296,-0.91872 L 8.63189,-0.893114 L 8.61077,-0.866031
 L 8.58969,-0.837629 L 8.56873,-0.808064 L 8.54799,-0.777494 L 8.52755,-0.746075 L 8.5075,-0.713965 L 8.48793,-0.681321
 L 8.46892,-0.6483 L 8.45058,-0.615058 L 8.43297,-0.581754 L 8.4162,-0.548543 L 8.40036,-0.515584 L 8.38552,-0.483032
 L 8.37178,-0.451046 L 8.35923,-0.419782 L 8.34795,-0.389397 L 8.33804,-0.360048 L 8.32958,-0.331893 L 8.23666,-1.31006e-15
 z
M 0.045257,-12.4839 L 0.0466971,-12.5248 L 0.0481881,-12.5968 L 0.0497252,-12.7005 L 0.051303,-12.8363 L 0.0529167,-13.0049
 L 0.0544549,-13.1957 L 0.0558312,-13.3968 L 0.0570455,-13.6071 L 0.0580977,-13.8253 L 0.0589878,-14.0503 L 0.0597156,-14.281
 L 0.0602812,-14.5162 L 0.0606846,-14.7546 L 0.0609255,-14.9953 L 0.0610041,-15.2369 L 0.0609202,-15.4783 L 0.0606738,-15.7183
 L 0.0602649,-15.9559 L 0.0596933,-16.1897 L 0.0589591,-16.4187 L 0.0580621,-16.6416 L 0.0570024,-16.8574 L 0.0557799,-17.0648
 L 0.0543945,-17.2627 L 0.0528461,-17.4499 L 0.0512425,-17.6149 L 0.0496737,-17.7471 L 0.0481448,-17.8472 L 0.0466609,-17.9157
 L 0.0452272,-17.9533 L 0.0438488,-17.9606 L 0.0425308,-17.9381 L 0.0412784,-17.8864 L 0.0400967,-17.8061 L 0.0389908,-17.6978
 L 0.0379658,-17.5621 L 0.037027,-17.3996 L 0.0361794,-17.2109 L 0.0354281,-16.9965 L 0.0347784,-16.7571 L 0.0342352,-16.4932
 L 0.0338039,-16.2054 L 0.0334894,-15.8943 L 0.033297,-15.5606 L 0.0332317,-15.2047 L 0.033297,-14.849 L 0.0334895,-14.5157
 L 0.0338041,-14.2054 L 0.0342358,-13.9186 L 0.0347795,-13.656 L 0.03543,-13.418 L 0.0361824,-13.2054 L 0.0370315,-13.0186
 L 0.0379723,-12.8583 L 0.0389996,-12.725 L 0.0401084,-12.6193 L 0.0412936,-12.5417 L 0.0425502,-12.4929 L 0.043873,-12.4735
 z
M 38.0294,-9.79311 L 38.0294,-10.5151 L 38.029,-11.1675 L 38.0282,-11.754 L 38.0269,-12.2779 L 38.0248,-12.7428
 L 38.0219,-13.1522 L 38.0179,-13.5097 L 38.0128,-13.8187 L 38.0063,-14.0828 L 37.9983,-14.3055 L 37.9888,-14.4903
 L 37.9774,-14.6408 L 37.9641,-14.7603 L 37.9487,-14.8525 L 37.9311,-14.9209 L 37.9111,-14.9689 L 37.8885,-15.0002
 L 37.8633,-15.0182 L 37.8352,-15.0264 L 37.8042,-15.0283 L 37.7995,-15.0118 L 37.7949,-14.9632 L 37.7902,-14.8836
 L 37.7856,-14.7746 L 37.781,-14.6372 L 37.7764,-14.473 L 37.772,-14.283 L 37.7676,-14.0688 L 37.7634,-13.8314
 L 37.7593,-13.5724 L 37.7553,-13.2929 L 37.7516,-12.9942 L 37.748,-12.6777 L 37.7446,-12.3446 L 37.7415,-11.9963
 L 37.7386,-11.6341 L 37.736,-11.2592 L 37.7337,-10.873 L 37.7317,-10.4768 L 37.7301,-10.0718 L 37.7119,-5.11528
 L 21.7013,-5.0975 L 5.69066,-5.07972 L 5.85625,-4.90347 L 6.02185,-4.72722 L 38.0294,-4.72722 z
M 28.2228,-13.5475 L 28.2744,-13.6283 L 28.3194,-13.701 L 28.3564,-13.766 L 28.3841,-13.8237 L 28.4011,-13.8746
 L 28.406,-13.9191 L 28.3975,-13.9577 L 28.3744,-13.9907 L 28.3351,-14.0186 L 28.2785,-14.0418 L 28.2031,-14.0608
 L 28.1076,-14.0759 L 27.9906,-14.0877 L 27.8508,-14.0965 L 27.6869,-14.1027 L 27.4976,-14.1069 L 27.2814,-14.1094
 L 27.037,-14.1106 L 26.7631,-14.1111 L 26.4583,-14.1111 L 26.2439,-14.111 L 26.046,-14.1105 L 25.8638,-14.1097
 L 25.6968,-14.1085 L 25.5442,-14.107 L 25.4056,-14.1049 L 25.2801,-14.1024 L 25.1672,-14.0994 L 25.0662,-14.0958
 L 24.9765,-14.0917 L 24.8975,-14.0869 L 24.8284,-14.0815 L 24.7687,-14.0754 L 24.7176,-14.0686 L 24.6746,-14.061
 L 24.639,-14.0527 L 24.6102,-14.0435 L 24.5875,-14.0335 L 24.5703,-14.0225 L 24.5578,-14.0107 L 24.5486,-13.9986
 L 24.5409,-13.9862 L 24.5347,-13.9732 L 24.5302,-13.9597 L 24.5272,-13.9455 L 24.5259,-13.9304 L 24.5263,-13.9143
 L 24.5285,-13.897 L 24.5325,-13.8785 L 24.5383,-13.8586 L 24.5461,-13.8372 L 24.5557,-13.8141 L 24.5674,-13.7892
 L 24.581,-13.7623 L 24.5968,-13.7335 L 24.6146,-13.7024 L 24.6346,-13.6689 L 24.6568,-13.6331 L 24.6812,-13.5946
 L 24.7079,-13.5534 L 24.9414,-13.1964 L 27.9959,-13.1939 z
M 19.8614,-13.1964 L 20.0949,-13.5534 L 20.1471,-13.6335 L 20.1928,-13.7056 L 20.2304,-13.77 L 20.2587,-13.8273
 L 20.2763,-13.8777 L 20.2819,-13.9218 L 20.2741,-13.9599 L 20.2516,-13.9926 L 20.213,-14.0201 L 20.157,-14.0431
 L 20.0823,-14.0618 L 19.9875,-14.0767 L 19.8712,-14.0883 L 19.7322,-14.0969 L 19.5691,-14.103 L 19.3805,-14.1071
 L 19.165,-14.1095 L 18.9215,-14.1107 L 18.6484,-14.1111 L 18.3444,-14.1111 L 18.1251,-14.111 L 17.9231,-14.1105
 L 17.738,-14.1098 L 17.5688,-14.1086 L 17.4149,-14.1071 L 17.2755,-14.1051 L 17.15,-14.1025 L 17.0375,-14.0995
 L 16.9373,-14.0959 L 16.8488,-14.0916 L 16.7711,-14.0867 L 16.7035,-14.0811 L 16.6454,-14.0747 L 16.5959,-14.0676
 L 16.5544,-14.0596 L 16.5201,-14.0508 L 16.4922,-14.0411 L 16.4701,-14.0304 L 16.453,-14.0188 L 16.4401,-14.0061
 L 16.4302,-13.9932 L 16.4217,-13.9802 L 16.4148,-13.9669 L 16.4095,-13.9532 L 16.4058,-13.9389 L 16.4038,-13.9239
 L 16.4036,-13.9079 L 16.4051,-13.8909 L 16.4085,-13.8727 L 16.4137,-13.8531 L 16.4209,-13.832 L 16.4301,-13.8092
 L 16.4412,-13.7846 L 16.4545,-13.7579 L 16.4698,-13.7292 L 16.4873,-13.6981 L 16.5071,-13.6645 L 16.529,-13.6283
 L 16.5533,-13.5894 L 16.58,-13.5475 L 16.8069,-13.1939 z
M 10.2203,-13.1952 L 11.7475,-13.1964 L 11.981,-13.5534 L 12.0332,-13.6335 L 12.0789,-13.7056 L 12.1165,-13.77
 L 12.1448,-13.8273 L 12.1624,-13.8777 L 12.168,-13.9218 L 12.1602,-13.9599 L 12.1377,-13.9926 L 12.0991,-14.0201
 L 12.0431,-14.0431 L 11.9684,-14.0618 L 11.8736,-14.0767 L 11.7574,-14.0883 L 11.6183,-14.0969 L 11.4552,-14.103
 L 11.2666,-14.1071 L 11.0511,-14.1095 L 10.8076,-14.1107 L 10.5345,-14.1111 L 10.2306,-14.1111 L 10.0112,-14.111
 L 9.80925,-14.1105 L 9.62407,-14.1098 L 9.4549,-14.1086 L 9.301,-14.1071 L 9.16163,-14.1051 L 9.03607,-14.1025
 L 8.92358,-14.0995 L 8.82342,-14.0959 L 8.73487,-14.0916 L 8.6572,-14.0867 L 8.58965,-14.0811 L 8.53152,-14.0747
 L 8.48205,-14.0676 L 8.44052,-14.0596 L 8.40619,-14.0508 L 8.37834,-14.0411 L 8.35622,-14.0304 L 8.33911,-14.0188
 L 8.32626,-14.0061 L 8.31631,-13.9932 L 8.30785,-13.9802 L 8.30094,-13.9669 L 8.29562,-13.9532 L 8.29194,-13.9389
 L 8.28996,-13.9239 L 8.28971,-13.9079 L 8.29124,-13.8909 L 8.2946,-13.8727 L 8.29985,-13.8531 L 8.30702,-13.832
 L 8.31616,-13.8092 L 8.32733,-13.7846 L 8.34056,-13.7579 L 8.35592,-13.7292 L 8.37344,-13.6981 L 8.39316,-13.6645
 L 8.41515,-13.6283 L 8.43945,-13.5894 L 8.4661,-13.5475 L 8.69301,-13.1939 z
M 36.3434,-13.5219 L 36.3971,-13.6004 L 36.4439,-13.6711 L 36.4824,-13.7344 L 36.5113,-13.7907 L 36.5295,-13.8405
 L 36.5355,-13.8842 L 36.5282,-13.9222 L 36.5062,-13.955 L 36.4683,-13.9829 L 36.4131,-14.0065 L 36.3394,-14.0261
 L 36.246,-14.0421 L 36.1315,-14.055 L 35.9947,-14.0653 L 35.8342,-14.0733 L 35.6488,-14.0795 L 35.4373,-14.0843
 L 35.1983,-14.0881 L 34.9305,-14.0914 L 34.6328,-14.0946 L 34.4387,-14.0965 L 34.2572,-14.0979 L 34.0879,-14.0988
 L 33.9304,-14.0992 L 33.7844,-14.099 L 33.6496,-14.0984 L 33.5257,-14.0972 L 33.4123,-14.0955 L 33.3092,-14.0932
 L 33.2158,-14.0903 L 33.1321,-14.0869 L 33.0575,-14.0828 L 32.9918,-14.0782 L 32.9347,-14.0729 L 32.8858,-14.067
 L 32.8448,-14.0604 L 32.8113,-14.0532 L 32.7851,-14.0454 L 32.7658,-14.0368 L 32.753,-14.0276 L 32.7356,-14.0096
 L 32.7203,-13.9925 L 32.7071,-13.9759 L 32.6962,-13.9596 L 32.6876,-13.9433 L 32.6814,-13.9267 L 32.6776,-13.9095
 L 32.6763,-13.8915 L 32.6776,-13.8723 L 32.6815,-13.8517 L 32.6882,-13.8294 L 32.6977,-13.8052 L 32.71,-13.7786
 L 32.7253,-13.7496 L 32.7436,-13.7177 L 32.7649,-13.6828 L 32.7894,-13.6445 L 32.817,-13.6025 L 32.848,-13.5566
 L 32.8823,-13.5065 L 33.0973,-13.1939 L 36.1177,-13.1939 z
M 23.8971,-10.5299 L 24.2602,-10.9008 L 24.4886,-12.0527 L 24.7168,-13.2045 L 24.2308,-13.6905 L 24.0089,-13.4598
 L 23.9792,-13.4283 L 23.9518,-13.3975 L 23.9265,-13.3664 L 23.9029,-13.3342 L 23.8809,-13.3 L 23.8601,-13.2629
 L 23.8402,-13.2218 L 23.821,-13.1761 L 23.8022,-13.1246 L 23.7835,-13.0666 L 23.7647,-13.001 L 23.7454,-12.9271
 L 23.7254,-12.8438 L 23.7045,-12.7504 L 23.6823,-12.6457 L 23.6585,-12.5291 L 23.6329,-12.3995 L 23.6053,-12.256
 L 23.5753,-12.0978 L 23.5426,-11.9239 L 23.5091,-11.7445 L 23.479,-11.5821 L 23.4522,-11.4355 L 23.4285,-11.3038
 L 23.408,-11.1859 L 23.3904,-11.0809 L 23.3759,-10.9877 L 23.3641,-10.9053 L 23.3552,-10.8327 L 23.349,-10.7688
 L 23.3453,-10.7127 L 23.3442,-10.6633 L 23.3456,-10.6197 L 23.3492,-10.5807 L 23.3552,-10.5454 L 23.3634,-10.5128
 L 23.3736,-10.4819 L 23.3859,-10.4515 L 23.4001,-10.4208 L 23.4162,-10.3887 L 23.5339,-10.1588 z
M 15.7789,-10.5299 L 16.1378,-10.9008 L 16.3649,-12.0581 L 16.5921,-13.2153 L 16.3545,-13.4529 L 16.1169,-13.6905
 L 15.8822,-13.4482 L 15.8502,-13.4147 L 15.8209,-13.3826 L 15.794,-13.3507 L 15.7692,-13.3182 L 15.7462,-13.2842
 L 15.7246,-13.2475 L 15.7043,-13.2073 L 15.6848,-13.1626 L 15.6659,-13.1124 L 15.6474,-13.0558 L 15.6288,-12.9917
 L 15.6099,-12.9192 L 15.5904,-12.8373 L 15.57,-12.7451 L 15.5484,-12.6416 L 15.5253,-12.5257 L 15.5004,-12.3966
 L 15.4734,-12.2533 L 15.444,-12.0947 L 15.4119,-11.92 L 15.3792,-11.7415 L 15.3499,-11.58 L 15.3238,-11.4346
 L 15.3008,-11.304 L 15.2809,-11.1874 L 15.264,-11.0837 L 15.2501,-10.9917 L 15.2389,-10.9105 L 15.2305,-10.8391
 L 15.2248,-10.7763 L 15.2217,-10.7212 L 15.2212,-10.6727 L 15.2231,-10.6297 L 15.2273,-10.5912 L 15.2338,-10.5562
 L 15.2426,-10.5236 L 15.2535,-10.4923 L 15.2664,-10.4614 L 15.2814,-10.4298 L 15.2982,-10.3964 L 15.4201,-10.1588
 z
M 32.0381,-10.4853 L 32.3831,-10.8303 L 32.6204,-12.0084 L 32.8579,-13.1866 L 32.6358,-13.4019 L 32.6175,-13.4195
 L 32.5994,-13.4367 L 32.5815,-13.4535 L 32.5639,-13.4698 L 32.5467,-13.4855 L 32.5299,-13.5006 L 32.5136,-13.5151
 L 32.4978,-13.5289 L 32.4827,-13.5418 L 32.4683,-13.554 L 32.4547,-13.5652 L 32.4419,-13.5755 L 32.43,-13.5848
 L 32.4191,-13.5931 L 32.4093,-13.6002 L 32.4005,-13.6062 L 32.3929,-13.6109 L 32.3866,-13.6144 L 32.3815,-13.6165
 L 32.3779,-13.6172 L 32.3742,-13.6165 L 32.3692,-13.6142 L 32.363,-13.6105 L 32.3555,-13.6055 L 32.3469,-13.5991
 L 32.3372,-13.5915 L 32.3265,-13.5827 L 32.3148,-13.5728 L 32.3023,-13.5618 L 32.2889,-13.5499 L 32.2748,-13.5369
 L 32.26,-13.5231 L 32.2446,-13.5085 L 32.2287,-13.493 L 32.2123,-13.4769 L 32.1954,-13.4602 L 32.1782,-13.4428
 L 32.1607,-13.425 L 32.1431,-13.4066 L 32.1252,-13.3879 L 32.0963,-13.3567 L 32.0697,-13.3261 L 32.045,-13.2952
 L 32.0221,-13.2632 L 32.0007,-13.2292 L 31.9805,-13.1923 L 31.9613,-13.1517 L 31.9428,-13.1064 L 31.9247,-13.0555
 L 31.9068,-12.9983 L 31.8889,-12.9338 L 31.8706,-12.8611 L 31.8517,-12.7794 L 31.832,-12.6877 L 31.8112,-12.5853
 L 31.789,-12.4712 L 31.7652,-12.3445 L 31.7395,-12.2044 L 31.7117,-12.0499 L 31.6814,-11.8803 L 31.6503,-11.7044
 L 31.6222,-11.5451 L 31.5973,-11.4014 L 31.5754,-11.2723 L 31.5563,-11.1567 L 31.5402,-11.0538 L 31.5268,-10.9624
 L 31.5162,-10.8816 L 31.5081,-10.8104 L 31.5027,-10.7477 L 31.4997,-10.6926 L 31.4992,-10.644 L 31.5011,-10.601
 L 31.5052,-10.5626 L 31.5115,-10.5276 L 31.52,-10.4953 L 31.5306,-10.4644 L 31.5431,-10.4341 L 31.5576,-10.4034
 L 31.5739,-10.3711 L 31.6933,-10.1402 z
M 20.0956,-10.3965 L 20.1285,-10.4298 L 20.1585,-10.4617 L 20.186,-10.493 L 20.2114,-10.5249 L 20.2348,-10.5582
 L 20.2566,-10.5941 L 20.2772,-10.6335 L 20.2968,-10.6775 L 20.3157,-10.727 L 20.3343,-10.783 L 20.3529,-10.8466
 L 20.3718,-10.9188 L 20.3913,-11.0005 L 20.4117,-11.0928 L 20.4333,-11.1967 L 20.4565,-11.3131 L 20.4815,-11.4432
 L 20.5087,-11.5878 L 20.5384,-11.748 L 20.5709,-11.9249 L 20.6018,-12.0939 L 20.6296,-12.2479 L 20.6546,-12.3879
 L 20.6767,-12.5147 L 20.696,-12.629 L 20.7126,-12.7317 L 20.7266,-12.8236 L 20.738,-12.9056 L 20.747,-12.9784
 L 20.7535,-13.043 L 20.7578,-13.1001 L 20.7597,-13.1506 L 20.7595,-13.1953 L 20.7571,-13.2351 L 20.7528,-13.2707
 L 20.7464,-13.303 L 20.7382,-13.3328 L 20.7281,-13.3609 L 20.7163,-13.3883 L 20.7028,-13.4156 L 20.6941,-13.4321
 L 20.6853,-13.4482 L 20.6763,-13.4639 L 20.6672,-13.4792 L 20.6581,-13.4939 L 20.649,-13.5081 L 20.6399,-13.5216
 L 20.631,-13.5345 L 20.6221,-13.5466 L 20.6134,-13.558 L 20.6049,-13.5685 L 20.5967,-13.5782 L 20.5888,-13.5869
 L 20.5812,-13.5946 L 20.5739,-13.6013 L 20.5671,-13.6069 L 20.5608,-13.6113 L 20.5549,-13.6146 L 20.5496,-13.6166
 L 20.5449,-13.6172 L 20.5394,-13.6161 L 20.5319,-13.6128 L 20.5226,-13.6074 L 20.5114,-13.6001 L 20.4985,-13.5908
 L 20.484,-13.5797 L 20.4681,-13.5668 L 20.4507,-13.5523 L 20.432,-13.5363 L 20.4121,-13.5188 L 20.3911,-13.4999
 L 20.369,-13.4797 L 20.3461,-13.4583 L 20.3224,-13.4357 L 20.2979,-13.4122 L 20.2728,-13.3877 L 20.2472,-13.3624
 L 20.2212,-13.3362 L 20.1949,-13.3095 L 20.1684,-13.2821 L 19.8457,-12.9469 L 19.6188,-11.7917 L 19.3921,-10.6364
 L 19.6242,-10.3969 L 19.8564,-10.1573 z
M 36.3827,-10.388 L 36.4137,-10.4198 L 36.442,-10.4506 L 36.4681,-10.4812 L 36.4922,-10.5126 L 36.5146,-10.5457
 L 36.5355,-10.5815 L 36.5553,-10.621 L 36.5742,-10.665 L 36.5925,-10.7146 L 36.6106,-10.7706 L 36.6286,-10.8341
 L 36.6469,-10.906 L 36.6658,-10.9873 L 36.6856,-11.0788 L 36.7065,-11.1816 L 36.7288,-11.2966 L 36.7529,-11.4248
 L 36.779,-11.567 L 36.8073,-11.7243 L 36.8383,-11.8976 L 36.8667,-12.0581 L 36.8925,-12.2055 L 36.9157,-12.3404
 L 36.9364,-12.4635 L 36.9546,-12.5755 L 36.9704,-12.6771 L 36.9838,-12.7691 L 36.995,-12.852 L 37.004,-12.9266
 L 37.0108,-12.9936 L 37.0155,-13.0536 L 37.0183,-13.1074 L 37.019,-13.1557 L 37.0179,-13.1992 L 37.0149,-13.2385
 L 37.0101,-13.2743 L 37.0037,-13.3073 L 36.9956,-13.3383 L 36.9859,-13.3679 L 36.9747,-13.3969 L 36.9671,-13.4149
 L 36.9593,-13.4325 L 36.9515,-13.4497 L 36.9435,-13.4663 L 36.9356,-13.4824 L 36.9276,-13.4979 L 36.9196,-13.5127
 L 36.9118,-13.5268 L 36.904,-13.5401 L 36.8964,-13.5525 L 36.889,-13.564 L 36.8818,-13.5746 L 36.8749,-13.5841
 L 36.8682,-13.5925 L 36.8619,-13.5998 L 36.8559,-13.6059 L 36.8504,-13.6108 L 36.8452,-13.6143 L 36.8406,-13.6165
 L 36.8364,-13.6172 L 36.8315,-13.6161 L 36.8245,-13.6128 L 36.8156,-13.6074 L 36.8049,-13.6001 L 36.7924,-13.5908
 L 36.7782,-13.5797 L 36.7625,-13.5668 L 36.7454,-13.5523 L 36.7269,-13.5363 L 36.7072,-13.5188 L 36.6863,-13.4999
 L 36.6643,-13.4797 L 36.6414,-13.4583 L 36.6176,-13.4357 L 36.5931,-13.4122 L 36.5679,-13.3877 L 36.5421,-13.3624
 L 36.5159,-13.3362 L 36.4893,-13.3095 L 36.4624,-13.2821 L 36.1355,-12.9469 L 35.9075,-11.7972 L 35.6796,-10.6475
 L 35.9172,-10.4024 L 36.1547,-10.1573 z
M 11.9738,-10.3887 L 12.0053,-10.4207 L 12.0342,-10.4516 L 12.0608,-10.4823 L 12.0853,-10.5138 L 12.1081,-10.547
 L 12.1294,-10.583 L 12.1496,-10.6228 L 12.1689,-10.6672 L 12.1877,-10.7173 L 12.2062,-10.7741 L 12.2248,-10.8386
 L 12.2438,-10.9116 L 12.2634,-10.9943 L 12.284,-11.0876 L 12.3058,-11.1924 L 12.3292,-11.3098 L 12.3545,-11.4408
 L 12.3819,-11.5862 L 12.4117,-11.7471 L 12.4444,-11.9245 L 12.4751,-12.0924 L 12.5028,-12.2459 L 12.5277,-12.3857
 L 12.5498,-12.5126 L 12.5692,-12.6274 L 12.586,-12.7309 L 12.6002,-12.8238 L 12.6119,-12.907 L 12.6212,-12.9811
 L 12.6281,-13.047 L 12.6328,-13.1055 L 12.6352,-13.1572 L 12.6356,-13.2031 L 12.6338,-13.2437 L 12.6301,-13.2801
 L 12.6245,-13.3128 L 12.617,-13.3427 L 12.6077,-13.3705 L 12.5968,-13.3971 L 12.5842,-13.4232 L 12.5759,-13.4391
 L 12.5674,-13.4546 L 12.5588,-13.4697 L 12.5501,-13.4844 L 12.5413,-13.4985 L 12.5326,-13.5122 L 12.5238,-13.5252
 L 12.5151,-13.5376 L 12.5066,-13.5493 L 12.4981,-13.5602 L 12.4899,-13.5704 L 12.4819,-13.5797 L 12.4742,-13.5881
 L 12.4668,-13.5955 L 12.4597,-13.6019 L 12.453,-13.6073 L 12.4468,-13.6116 L 12.441,-13.6147 L 12.4357,-13.6166
 L 12.431,-13.6172 L 12.4255,-13.6161 L 12.418,-13.6128 L 12.4085,-13.6074 L 12.3973,-13.6001 L 12.3843,-13.5908
 L 12.3697,-13.5797 L 12.3535,-13.5668 L 12.336,-13.5523 L 12.3171,-13.5363 L 12.2969,-13.5188 L 12.2757,-13.4999
 L 12.2534,-13.4797 L 12.2302,-13.4583 L 12.2062,-13.4357 L 12.1814,-13.4122 L 12.156,-13.3877 L 12.1301,-13.3624
 L 12.1037,-13.3362 L 12.0771,-13.3095 L 12.0502,-13.2821 L 11.7232,-12.9469 L 11.4953,-11.7972 L 11.2674,-10.6475
 L 11.7425,-10.1573 z
M 28.2307,-10.4235 L 28.2654,-10.4606 L 28.297,-10.4957 L 28.3259,-10.5298 L 28.3523,-10.5638 L 28.3767,-10.5989
 L 28.3992,-10.636 L 28.4203,-10.6762 L 28.4402,-10.7205 L 28.4593,-10.7699 L 28.4779,-10.8255 L 28.4963,-10.8882
 L 28.5148,-10.9591 L 28.5338,-11.0391 L 28.5535,-11.1294 L 28.5743,-11.2309 L 28.5965,-11.3447 L 28.6204,-11.4718
 L 28.6464,-11.6132 L 28.6747,-11.7699 L 28.7057,-11.9429 L 28.7355,-12.1097 L 28.7623,-12.2615 L 28.7862,-12.3991
 L 28.8074,-12.5234 L 28.8258,-12.6353 L 28.8415,-12.7356 L 28.8547,-12.8252 L 28.8654,-12.9049 L 28.8736,-12.9756
 L 28.8794,-13.0383 L 28.8829,-13.0936 L 28.8841,-13.1425 L 28.8832,-13.1859 L 28.8801,-13.2247 L 28.875,-13.2596
 L 28.868,-13.2915 L 28.859,-13.3214 L 28.8481,-13.35 L 28.8355,-13.3782 L 28.8212,-13.407 L 28.8122,-13.4241
 L 28.8029,-13.441 L 28.7936,-13.4573 L 28.7842,-13.4732 L 28.7747,-13.4886 L 28.7653,-13.5034 L 28.7559,-13.5175
 L 28.7467,-13.5309 L 28.7375,-13.5436 L 28.7286,-13.5555 L 28.7198,-13.5664 L 28.7114,-13.5765 L 28.7032,-13.5856
 L 28.6954,-13.5937 L 28.688,-13.6006 L 28.6811,-13.6065 L 28.6746,-13.6111 L 28.6686,-13.6145 L 28.6632,-13.6165
 L 28.6585,-13.6172 L 28.653,-13.6162 L 28.6457,-13.6131 L 28.6366,-13.6081 L 28.6258,-13.6013 L 28.6134,-13.5927
 L 28.5994,-13.5824 L 28.5841,-13.5704 L 28.5674,-13.557 L 28.5496,-13.5421 L 28.5306,-13.5258 L 28.5105,-13.5083
 L 28.4895,-13.4895 L 28.4677,-13.4696 L 28.4451,-13.4487 L 28.4218,-13.4269 L 28.398,-13.4041 L 28.3737,-13.3806
 L 28.3491,-13.3564 L 28.3241,-13.3315 L 28.299,-13.3061 L 28.2554,-13.2615 L 28.216,-13.2206 L 28.1804,-13.182
 L 28.1481,-13.1447 L 28.1187,-13.1076 L 28.0919,-13.0695 L 28.0672,-13.0294 L 28.0443,-12.9861 L 28.0226,-12.9384
 L 28.0019,-12.8854 L 27.9816,-12.8257 L 27.9615,-12.7584 L 27.941,-12.6823 L 27.9198,-12.5962 L 27.8974,-12.4991
 L 27.8736,-12.3898 L 27.8477,-12.2672 L 27.8195,-12.1303 L 27.7886,-11.9777 L 27.7544,-11.8085 L 27.5153,-10.6223
 L 27.7476,-10.3901 L 27.9798,-10.1578 z
M 7.64801,-10.5054 L 7.98964,-10.8522 L 8.22833,-12.0366 L 8.46709,-13.221 L 8.2773,-13.4191 L 8.24277,-13.4546
 L 8.21061,-13.4863 L 8.18056,-13.5143 L 8.15233,-13.5385 L 8.12566,-13.5589 L 8.10027,-13.5755 L 8.07589,-13.5883
 L 8.05225,-13.5973 L 8.02908,-13.6025 L 8.00611,-13.6039 L 7.98305,-13.6015 L 7.95965,-13.5953 L 7.93563,-13.5852
 L 7.91072,-13.5713 L 7.88464,-13.5536 L 7.85712,-13.532 L 7.8279,-13.5065 L 7.79669,-13.4772 L 7.76323,-13.4441
 L 7.72724,-13.407 L 7.70108,-13.3788 L 7.67674,-13.3505 L 7.654,-13.3211 L 7.63264,-13.29 L 7.61242,-13.2563
 L 7.59312,-13.2194 L 7.57451,-13.1783 L 7.55636,-13.1324 L 7.53846,-13.0808 L 7.52056,-13.0229 L 7.50245,-12.9577
 L 7.48389,-12.8846 L 7.46466,-12.8027 L 7.44453,-12.7113 L 7.42327,-12.6096 L 7.40066,-12.4968 L 7.37646,-12.3721
 L 7.35046,-12.2348 L 7.32243,-12.0841 L 7.29213,-11.9192 L 7.25958,-11.7409 L 7.23034,-11.5798 L 7.20433,-11.4348
 L 7.18148,-11.3047 L 7.16171,-11.1886 L 7.14493,-11.0854 L 7.13109,-10.994 L 7.12009,-10.9134 L 7.11186,-10.8425
 L 7.10633,-10.7802 L 7.10342,-10.7255 L 7.10305,-10.6774 L 7.10514,-10.6347 L 7.10963,-10.5964 L 7.11642,-10.5615
 L 7.12545,-10.5288 L 7.13665,-10.4974 L 7.14992,-10.4662 L 7.1652,-10.4341 L 7.18241,-10.4 L 7.30631,-10.1585
 z
M 2.35445,-11.9416 L 2.60836,-12.2282 L 2.7,-12.6 L 2.60836,-12.9718 L 2.35445,-13.2584 L 1.99643,-13.3942
 L 1.61632,-13.348 L 1.30119,-13.1305 L 1.12325,-12.7915 L 1.12325,-12.4085 L 1.30119,-12.0695 L 1.61632,-11.852
 L 1.99643,-11.8058 z
M 1.71459,-12.0294 L 1.41459,-12.2473 L 1.3,-12.6 L 1.41459,-12.9527 L 1.71459,-13.1706 L 2.08541,-13.1706
 L 2.38541,-12.9527 L 2.5,-12.6 L 2.38541,-12.2473 L 2.08541,-12.0294 z
M 22.0399,-11.4393 L 22.119,-11.4583 L 22.1993,-11.4915 L 22.2798,-11.5399 L 22.2959,-11.5517 L 22.311,-11.5639
 L 22.3253,-11.5766 L 22.3385,-11.5898 L 22.3509,-11.6035 L 22.3624,-11.6178 L 22.373,-11.6327 L 22.3827,-11.6482
 L 22.3916,-11.6643 L 22.3997,-11.6811 L 22.4069,-11.6986 L 22.4133,-11.7168 L 22.4189,-11.7358 L 22.4237,-11.7556
 L 22.4277,-11.7762 L 22.431,-11.7977 L 22.4335,-11.82 L 22.4353,-11.8433 L 22.4363,-11.8675 L 22.4367,-11.8926
 L 22.4334,-11.958 L 22.424,-12.0199 L 22.4089,-12.0781 L 22.3884,-12.1324 L 22.3629,-12.1826 L 22.3329,-12.2285
 L 22.2989,-12.2698 L 22.2611,-12.3064 L 22.2201,-12.338 L 22.1762,-12.3644 L 22.1299,-12.3853 L 22.0815,-12.4007
 L 22.0315,-12.4102 L 21.9803,-12.4136 L 21.9284,-12.4107 L 21.8761,-12.4013 L 21.8238,-12.3852 L 21.772,-12.3621
 L 21.721,-12.3319 L 21.6714,-12.2943 L 21.6044,-12.229 L 21.5527,-12.1605 L 21.5154,-12.0897 L 21.4916,-12.0177
 L 21.4806,-11.9455 L 21.4815,-11.8742 L 21.4934,-11.8048 L 21.5156,-11.7382 L 21.5472,-11.6756 L 21.5874,-11.6179
 L 21.6354,-11.5663 L 21.6903,-11.5216 L 21.7513,-11.485 L 21.8176,-11.4574 L 21.8884,-11.4399 L 21.9627,-11.4336
 z
M 2.35445,-9.94161 L 2.60836,-10.2282 L 2.7,-10.6 L 2.60836,-10.9718 L 2.35445,-11.2584 L 1.99643,-11.3942
 L 1.61632,-11.348 L 1.30119,-11.1305 L 1.12325,-10.7915 L 1.12325,-10.4085 L 1.30119,-10.0695 L 1.61632,-9.85199
 L 1.99643,-9.80583 z
M 1.71459,-10.0294 L 1.41459,-10.2473 L 1.3,-10.6 L 1.41459,-10.9527 L 1.71459,-11.1706 L 2.08541,-11.1706
 L 2.38541,-10.9527 L 2.5,-10.6 L 2.38541,-10.2473 L 2.08541,-10.0294 z
M 19.4028,-9.91306 L 19.6421,-10.16 L 19.1635,-10.6539 L 16.1143,-10.6539 L 15.6357,-10.16 L 16.1143,-9.66611
 L 19.1635,-9.66611 z
M 27.5167,-9.91306 L 27.756,-10.16 L 27.2773,-10.6539 L 24.2691,-10.6539 L 24.0055,-10.4117 L 23.7419,-10.1695
 L 23.9851,-9.91778 L 24.2282,-9.66611 L 27.2773,-9.66611 z
M 35.8699,-10.16 L 35.3912,-10.6539 L 32.4127,-10.6539 L 31.934,-10.16 L 32.4127,-9.66611 L 35.3912,-9.66611
 z
M 11.2889,-9.91306 L 11.5282,-10.16 L 11.0496,-10.6539 L 8.00044,-10.6539 L 7.52179,-10.16 L 8.00044,-9.66611
 L 11.0496,-9.66611 z
M 27.5278,-6.68408 L 27.563,-6.72131 L 27.5951,-6.7564 L 27.6243,-6.79038 L 27.651,-6.82428 L 27.6756,-6.85914
 L 27.6983,-6.89599 L 27.7195,-6.93587 L 27.7395,-6.97982 L 27.7586,-7.02886 L 27.7772,-7.08403 L 27.7955,-7.14638
 L 27.814,-7.21692 L 27.8328,-7.2967 L 27.8525,-7.38676 L 27.8732,-7.48812 L 27.8953,-7.60182 L 27.9191,-7.7289
 L 27.945,-7.87039 L 27.9733,-8.02733 L 28.0043,-8.20074 L 28.034,-8.36796 L 28.0608,-8.52002 L 28.0847,-8.65779
 L 28.1058,-8.78215 L 28.1241,-8.89399 L 28.1398,-8.99417 L 28.1529,-9.08359 L 28.1635,-9.1631 L 28.1716,-9.2336
 L 28.1773,-9.29595 L 28.1806,-9.35104 L 28.1817,-9.39974 L 28.1806,-9.44294 L 28.1774,-9.4815 L 28.1721,-9.51631
 L 28.1648,-9.54825 L 28.1556,-9.57818 L 28.1445,-9.607 L 28.1317,-9.63557 L 28.1171,-9.66477 L 28.1079,-9.68217
 L 28.0984,-9.6992 L 28.0888,-9.71579 L 28.079,-9.7319 L 28.0692,-9.74746 L 28.0593,-9.76243 L 28.0494,-9.77674
 L 28.0396,-9.79035 L 28.0298,-9.80318 L 28.0202,-9.8152 L 28.0108,-9.82633 L 28.0016,-9.83653 L 27.9927,-9.84574
 L 27.9842,-9.8539 L 27.976,-9.86097 L 27.9682,-9.86687 L 27.9609,-9.87156 L 27.954,-9.87498 L 27.9478,-9.87707
 L 27.9421,-9.87778 L 27.9358,-9.8766 L 27.9276,-9.87314 L 27.9177,-9.86748 L 27.9061,-9.85972 L 27.8929,-9.84995
 L 27.8783,-9.83827 L 27.8623,-9.82476 L 27.845,-9.80951 L 27.8266,-9.79263 L 27.8071,-9.7742 L 27.7865,-9.75432
 L 27.7651,-9.73307 L 27.7429,-9.71056 L 27.72,-9.68687 L 27.6965,-9.6621 L 27.6725,-9.63633 L 27.6481,-9.60967
 L 27.6234,-9.5822 L 27.5985,-9.55402 L 27.5735,-9.52521 L 27.5311,-9.47575 L 27.4926,-9.42985 L 27.4576,-9.38648
 L 27.4257,-9.3446 L 27.3966,-9.30316 L 27.3699,-9.26113 L 27.3453,-9.21746 L 27.3222,-9.17111 L 27.3005,-9.12104
 L 27.2797,-9.06622 L 27.2594,-9.0056 L 27.2393,-8.93814 L 27.219,-8.86279 L 27.1981,-8.77853 L 27.1763,-8.6843
 L 27.1532,-8.57907 L 27.1284,-8.4618 L 27.1015,-8.33145 L 27.0723,-8.18696 L 27.0402,-8.02732 L 26.8106,-6.88199
 L 27.0425,-6.65021 L 27.2742,-6.41837 z
M 31.3418,-6.75478 L 31.6957,-7.10883 L 31.9293,-8.26396 L 32.1628,-9.41917 L 31.9425,-9.64847 L 31.9244,-9.6672
 L 31.9064,-9.68553 L 31.8885,-9.7034 L 31.8709,-9.72074 L 31.8536,-9.73749 L 31.8367,-9.7536 L 31.8203,-9.76901
 L 31.8044,-9.78366 L 31.7891,-9.79747 L 31.7744,-9.81041 L 31.7605,-9.82239 L 31.7473,-9.83337 L 31.7351,-9.84329
 L 31.7238,-9.85208 L 31.7135,-9.85968 L 31.7042,-9.86603 L 31.6961,-9.87108 L 31.6893,-9.87476 L 31.6837,-9.87701
 L 31.6794,-9.87778 L 31.6752,-9.87701 L 31.6697,-9.87476 L 31.6629,-9.87108 L 31.655,-9.86603 L 31.6459,-9.85968
 L 31.6358,-9.85208 L 31.6247,-9.84329 L 31.6127,-9.83337 L 31.5999,-9.82239 L 31.5862,-9.81041 L 31.5719,-9.79747
 L 31.557,-9.78366 L 31.5414,-9.76901 L 31.5254,-9.7536 L 31.5089,-9.73749 L 31.4921,-9.72074 L 31.475,-9.7034
 L 31.4576,-9.68553 L 31.44,-9.6672 L 31.4224,-9.64847 L 31.394,-9.61737 L 31.3678,-9.58674 L 31.3435,-9.55574
 L 31.3209,-9.52351 L 31.2997,-9.48918 L 31.2796,-9.45189 L 31.2605,-9.41079 L 31.242,-9.36501 L 31.2239,-9.31371
 L 31.206,-9.25601 L 31.188,-9.19106 L 31.1696,-9.11799 L 31.1506,-9.03596 L 31.1308,-8.9441 L 31.1099,-8.84155
 L 31.0876,-8.72745 L 31.0637,-8.60094 L 31.038,-8.46116 L 31.0101,-8.30726 L 30.9799,-8.13837 L 30.9486,-7.96274
 L 30.9205,-7.8036 L 30.8955,-7.65997 L 30.8735,-7.53085 L 30.8544,-7.41526 L 30.8381,-7.31219 L 30.8246,-7.22066
 L 30.8139,-7.13968 L 30.8057,-7.06825 L 30.8002,-7.00537 L 30.7971,-6.95007 L 30.7965,-6.90134 L 30.7981,-6.8582
 L 30.8021,-6.81964 L 30.8083,-6.78469 L 30.8166,-6.75234 L 30.8269,-6.72161 L 30.8393,-6.69151 L 30.8535,-6.66103
 L 30.8696,-6.62919 L 30.9877,-6.4008 z
M 35.6772,-6.64852 L 35.7078,-6.68006 L 35.736,-6.71059 L 35.7619,-6.74097 L 35.7858,-6.77203 L 35.8081,-6.80462
 L 35.8289,-6.83958 L 35.8486,-6.87776 L 35.8674,-6.92 L 35.8856,-6.96715 L 35.9034,-7.02005 L 35.9211,-7.07954
 L 35.939,-7.14647 L 35.9573,-7.22169 L 35.9764,-7.30603 L 35.9964,-7.40034 L 36.0177,-7.50547 L 36.0405,-7.62226
 L 36.0651,-7.75155 L 36.0918,-7.89419 L 36.1207,-8.05102 L 36.1383,-8.14726 L 36.1555,-8.2424 L 36.1723,-8.33608
 L 36.1886,-8.42796 L 36.2043,-8.51769 L 36.2195,-8.60493 L 36.2339,-8.68933 L 36.2477,-8.77055 L 36.2607,-8.84823
 L 36.2728,-8.92204 L 36.2841,-8.99162 L 36.2944,-9.05664 L 36.3037,-9.11673 L 36.312,-9.17156 L 36.3191,-9.22078
 L 36.3251,-9.26405 L 36.3298,-9.30101 L 36.3333,-9.33133 L 36.3354,-9.35465 L 36.3361,-9.37062 L 36.3351,-9.39675
 L 36.3321,-9.42512 L 36.3274,-9.45534 L 36.321,-9.48704 L 36.3132,-9.51982 L 36.304,-9.55329 L 36.2938,-9.58707
 L 36.2825,-9.62077 L 36.2704,-9.654 L 36.2576,-9.68638 L 36.2443,-9.71751 L 36.2307,-9.74701 L 36.2169,-9.77449
 L 36.203,-9.79957 L 36.1893,-9.82185 L 36.1759,-9.84095 L 36.1629,-9.85648 L 36.1505,-9.86805 L 36.1388,-9.87528
 L 36.1281,-9.87778 L 36.1234,-9.87666 L 36.1167,-9.87337 L 36.108,-9.868 L 36.0974,-9.86062 L 36.0851,-9.85134
 L 36.0712,-9.84023 L 36.0557,-9.82739 L 36.0387,-9.81291 L 36.0204,-9.79686 L 36.0008,-9.77934 L 35.98,-9.76045
 L 35.9582,-9.74025 L 35.9354,-9.71885 L 35.9118,-9.69633 L 35.8873,-9.67278 L 35.8622,-9.64829 L 35.8365,-9.62294
 L 35.8103,-9.59682 L 35.7837,-9.57003 L 35.7569,-9.54264 L 35.4299,-9.2075 L 35.2019,-8.0578 L 34.974,-6.90809
 L 35.4492,-6.41787 z
M 11.2715,-6.65247 L 11.3036,-6.68506 L 11.3329,-6.71633 L 11.3599,-6.74728 L 11.3847,-6.77891 L 11.4078,-6.8122
 L 11.4293,-6.84815 L 11.4496,-6.88775 L 11.4691,-6.93199 L 11.4879,-6.98186 L 11.5065,-7.03837 L 11.5251,-7.10249
 L 11.544,-7.17522 L 11.5636,-7.25756 L 11.5841,-7.3505 L 11.6059,-7.45502 L 11.6292,-7.57213 L 11.6543,-7.70281
 L 11.6817,-7.84805 L 11.7115,-8.00885 L 11.744,-8.18621 L 11.7748,-8.35466 L 11.8026,-8.50847 L 11.8275,-8.64844
 L 11.8496,-8.77536 L 11.869,-8.89004 L 11.8857,-8.99326 L 11.8998,-9.08582 L 11.9114,-9.16853 L 11.9205,-9.24217
 L 11.9273,-9.30754 L 11.9318,-9.36544 L 11.934,-9.41666 L 11.9341,-9.462 L 11.9321,-9.50226 L 11.9281,-9.53823
 L 11.9222,-9.57071 L 11.9144,-9.6005 L 11.9048,-9.62838 L 11.8935,-9.65516 L 11.8806,-9.68163 L 11.8721,-9.69766
 L 11.8635,-9.71334 L 11.8547,-9.72862 L 11.8459,-9.74346 L 11.837,-9.75779 L 11.8281,-9.77158 L 11.8192,-9.78476
 L 11.8104,-9.79728 L 11.8017,-9.8091 L 11.7932,-9.82016 L 11.7848,-9.83041 L 11.7767,-9.8398 L 11.7689,-9.84828
 L 11.7614,-9.8558 L 11.7543,-9.8623 L 11.7476,-9.86774 L 11.7413,-9.87205 L 11.7354,-9.8752 L 11.7301,-9.87712
 L 11.7254,-9.87778 L 11.7199,-9.87666 L 11.7125,-9.87337 L 11.7031,-9.868 L 11.6919,-9.86062 L 11.6791,-9.85134
 L 11.6646,-9.84023 L 11.6486,-9.82739 L 11.6312,-9.81291 L 11.6125,-9.79686 L 11.5926,-9.77934 L 11.5716,-9.76045
 L 11.5496,-9.74025 L 11.5267,-9.71885 L 11.5029,-9.69633 L 11.4785,-9.67278 L 11.4534,-9.64829 L 11.4278,-9.62294
 L 11.4018,-9.59682 L 11.3755,-9.57003 L 11.3489,-9.54264 L 11.0262,-9.2075 L 10.7994,-8.05222 L 10.5726,-6.89695
 L 10.8047,-6.65741 L 11.0369,-6.41787 z
M 19.39,-6.65706 L 19.4229,-6.69039 L 19.453,-6.72222 L 19.4805,-6.75356 L 19.5058,-6.78541 L 19.5292,-6.81878
 L 19.5511,-6.85468 L 19.5716,-6.8941 L 19.5912,-6.93806 L 19.6102,-6.98756 L 19.6288,-7.04361 L 19.6474,-7.1072
 L 19.6663,-7.17936 L 19.6858,-7.26109 L 19.7062,-7.35338 L 19.7278,-7.45725 L 19.751,-7.5737 L 19.776,-7.70374
 L 19.8032,-7.84837 L 19.8329,-8.0086 L 19.8653,-8.18543 L 19.8962,-8.35443 L 19.9241,-8.5085 L 19.949,-8.64849
 L 19.9711,-8.77522 L 19.9904,-8.88951 L 20.0071,-8.99221 L 20.021,-9.08413 L 20.0325,-9.16611 L 20.0414,-9.23898
 L 20.048,-9.30356 L 20.0522,-9.36069 L 20.0542,-9.41119 L 20.0539,-9.4559 L 20.0516,-9.49563 L 20.0472,-9.53124
 L 20.0409,-9.56353 L 20.0326,-9.59334 L 20.0226,-9.62151 L 20.0108,-9.64885 L 19.9973,-9.6762 L 19.9886,-9.69267
 L 19.9797,-9.70878 L 19.9707,-9.72448 L 19.9616,-9.73973 L 19.9525,-9.75446 L 19.9434,-9.76862 L 19.9343,-9.78217
 L 19.9253,-9.79504 L 19.9165,-9.80719 L 19.9078,-9.81856 L 19.8993,-9.82909 L 19.891,-9.83875 L 19.8831,-9.84746
 L 19.8755,-9.85519 L 19.8682,-9.86187 L 19.8614,-9.86745 L 19.855,-9.87189 L 19.8491,-9.87513 L 19.8438,-9.87711
 L 19.839,-9.87778 L 19.8336,-9.87674 L 19.8263,-9.87369 L 19.8171,-9.86869 L 19.8063,-9.86184 L 19.7939,-9.85322
 L 19.78,-9.84291 L 19.7647,-9.83098 L 19.748,-9.81753 L 19.7301,-9.80263 L 19.7111,-9.78636 L 19.6911,-9.76882
 L 19.6701,-9.75007 L 19.6482,-9.7302 L 19.6256,-9.70929 L 19.6024,-9.68743 L 19.5786,-9.66469 L 19.5543,-9.64116
 L 19.5296,-9.61692 L 19.5047,-9.59205 L 19.4795,-9.56663 L 19.436,-9.52211 L 19.3966,-9.48112 L 19.3609,-9.44255
 L 19.3286,-9.40528 L 19.2993,-9.36818 L 19.2725,-9.33013 L 19.2478,-9.29002 L 19.2248,-9.24672 L 19.2032,-9.19912
 L 19.1825,-9.14609 L 19.1622,-9.08651 L 19.1421,-9.01927 L 19.1217,-8.94324 L 19.1005,-8.85731 L 19.0782,-8.76035
 L 19.0543,-8.65124 L 19.0285,-8.52886 L 19.0004,-8.39209 L 18.9695,-8.23982 L 18.9354,-8.07092 L 18.6967,-6.8865
 L 18.9237,-6.65219 L 19.1508,-6.41787 z
M 23.1831,-6.77891 L 23.5491,-7.14036 L 23.7793,-8.30051 L 24.0094,-9.46065 L 23.8095,-9.66922 L 23.7739,-9.70591
 L 23.7407,-9.73877 L 23.7097,-9.76781 L 23.6807,-9.79304 L 23.6534,-9.81446 L 23.6274,-9.83208 L 23.6027,-9.84591
 L 23.5788,-9.85595 L 23.5555,-9.86222 L 23.5326,-9.86471 L 23.5098,-9.86343 L 23.4869,-9.8584 L 23.4634,-9.84962
 L 23.4393,-9.8371 L 23.4142,-9.82084 L 23.3879,-9.80085 L 23.3601,-9.77714 L 23.3306,-9.74972 L 23.299,-9.71858
 L 23.2651,-9.68375 L 23.2416,-9.65809 L 23.2195,-9.63139 L 23.1986,-9.60296 L 23.1787,-9.5721 L 23.1597,-9.53813
 L 23.1413,-9.50034 L 23.1233,-9.45806 L 23.1056,-9.41059 L 23.0879,-9.35724 L 23.0701,-9.29732 L 23.0519,-9.23013
 L 23.0331,-9.15498 L 23.0136,-9.07119 L 22.9932,-8.97806 L 22.9717,-8.8749 L 22.9488,-8.76102 L 22.9244,-8.63572
 L 22.8982,-8.49832 L 22.8702,-8.34813 L 22.84,-8.18444 L 22.8081,-8.00979 L 22.7793,-7.85099 L 22.7536,-7.7071
 L 22.7309,-7.57721 L 22.7111,-7.46039 L 22.6941,-7.35572 L 22.6798,-7.26228 L 22.6683,-7.17913 L 22.6593,-7.10536
 L 22.6528,-7.04003 L 22.6488,-6.98224 L 22.6471,-6.93105 L 22.6477,-6.88553 L 22.6505,-6.84477 L 22.6554,-6.80784
 L 22.6623,-6.77382 L 22.6712,-6.74178 L 22.682,-6.7108 L 22.6946,-6.67995 L 22.7089,-6.64831 L 22.8171,-6.41738
 z
M 15.0733,-6.79041 L 15.4323,-7.16139 L 15.6589,-8.31617 L 15.8855,-9.47103 L 15.6907,-9.67437 L 15.6556,-9.71046
 L 15.6229,-9.74276 L 15.5924,-9.77127 L 15.5638,-9.79598 L 15.5368,-9.8169 L 15.5111,-9.83403 L 15.4866,-9.84737
 L 15.4628,-9.85693 L 15.4396,-9.86269 L 15.4167,-9.86466 L 15.3938,-9.86285 L 15.3706,-9.85726 L 15.3469,-9.84788
 L 15.3225,-9.83471 L 15.2969,-9.81777 L 15.2701,-9.79704 L 15.2416,-9.77253 L 15.2113,-9.74425 L 15.1788,-9.71218
 L 15.144,-9.67634 L 15.1192,-9.64953 L 15.0961,-9.62208 L 15.0744,-9.59324 L 15.0538,-9.56229 L 15.0343,-9.52849
 L 15.0154,-9.4911 L 14.9972,-9.44939 L 14.9793,-9.40263 L 14.9615,-9.35007 L 14.9436,-9.29098 L 14.9254,-9.22464
 L 14.9067,-9.15029 L 14.8873,-9.0672 L 14.867,-8.97465 L 14.8455,-8.8719 L 14.8227,-8.7582 L 14.7983,-8.63282
 L 14.7722,-8.49504 L 14.744,-8.34411 L 14.7137,-8.17929 L 14.681,-8.0008 L 14.6517,-7.83917 L 14.6255,-7.6934
 L 14.6025,-7.56246 L 14.5826,-7.44532 L 14.5656,-7.34098 L 14.5515,-7.2484 L 14.5402,-7.16658 L 14.5317,-7.09448
 L 14.5258,-7.03108 L 14.5224,-6.97537 L 14.5216,-6.92633 L 14.5232,-6.88294 L 14.5271,-6.84416 L 14.5333,-6.80899
 L 14.5417,-6.77641 L 14.5522,-6.74538 L 14.5647,-6.7149 L 14.5791,-6.68394 L 14.5954,-6.65148 L 14.7145,-6.41936
 z
M 6.94246,-6.76593 L 7.28409,-7.11278 L 7.52277,-8.29719 L 7.76153,-9.48154 L 7.57174,-9.67966 L 7.53721,-9.71515
 L 7.50506,-9.74688 L 7.475,-9.77483 L 7.44677,-9.79902 L 7.4201,-9.81942 L 7.39471,-9.83603 L 7.37034,-9.84885
 L 7.3467,-9.85787 L 7.32353,-9.86309 L 7.30055,-9.8645 L 7.2775,-9.86208 L 7.2541,-9.85585 L 7.23008,-9.84578
 L 7.20516,-9.83188 L 7.17908,-9.81414 L 7.15157,-9.79255 L 7.12234,-9.76711 L 7.09113,-9.7378 L 7.05767,-9.70463
 L 7.02169,-9.66759 L 6.99552,-9.6394 L 6.97118,-9.61101 L 6.94844,-9.58164 L 6.92708,-9.55052 L 6.90686,-9.51687
 L 6.88756,-9.47991 L 6.86895,-9.43886 L 6.85081,-9.39295 L 6.8329,-9.3414 L 6.81501,-9.28344 L 6.79689,-9.21827
 L 6.77833,-9.14514 L 6.7591,-9.06325 L 6.73897,-8.97183 L 6.71771,-8.87011 L 6.6951,-8.75731 L 6.67091,-8.63264
 L 6.64491,-8.49534 L 6.61687,-8.34463 L 6.58657,-8.17972 L 6.55403,-8.00149 L 6.52479,-7.84038 L 6.49878,-7.69533
 L 6.47593,-7.56529 L 6.45615,-7.44919 L 6.43938,-7.34597 L 6.42553,-7.25458 L 6.41453,-7.17396 L 6.40631,-7.10304
 L 6.40077,-7.04077 L 6.39786,-6.98608 L 6.39749,-6.93793 L 6.39959,-6.89524 L 6.40407,-6.85696 L 6.41087,-6.82204
 L 6.4199,-6.7894 L 6.43109,-6.758 L 6.44437,-6.72677 L 6.45965,-6.69465 L 6.47686,-6.66059 L 6.60075,-6.41907
 z
M 2.35445,-7.94161 L 2.60836,-8.22822 L 2.7,-8.6 L 2.60836,-8.97178 L 2.35445,-9.25839 L 1.99643,-9.39417
 L 1.61632,-9.34801 L 1.30119,-9.1305 L 1.12325,-8.79145 L 1.12325,-8.40855 L 1.30119,-8.0695 L 1.61632,-7.85199
 L 1.99643,-7.80583 z
M 1.71459,-8.02937 L 1.41459,-8.24733 L 1.3,-8.6 L 1.41459,-8.95267 L 1.71459,-9.17063 L 2.08541,-9.17063
 L 2.38541,-8.95267 L 2.5,-8.6 L 2.38541,-8.24733 L 2.08541,-8.02937 z
M 21.4508,-7.76944 L 21.5036,-7.77634 L 21.5553,-7.78901 L 21.6053,-7.80722 L 21.6532,-7.83074 L 21.6983,-7.85933
 L 21.7401,-7.89277 L 21.7781,-7.93083 L 21.8118,-7.97326 L 21.8406,-8.01985 L 21.8639,-8.07036 L 21.8812,-8.12455
 L 21.892,-8.1822 L 21.8957,-8.24308 L 21.8923,-8.30703 L 21.8825,-8.36757 L 21.8666,-8.42446 L 21.8452,-8.47751
 L 21.8186,-8.52648 L 21.7874,-8.57116 L 21.7519,-8.61134 L 21.7126,-8.6468 L 21.67,-8.67732 L 21.6244,-8.70269
 L 21.5765,-8.72269 L 21.5265,-8.73711 L 21.4749,-8.74573 L 21.4223,-8.74832 L 21.369,-8.74469 L 21.3154,-8.7346
 L 21.2621,-8.71784 L 21.2094,-8.69421 L 21.1579,-8.66347 L 21.1079,-8.62542 L 21.0759,-8.59585 L 21.0472,-8.5646
 L 21.0218,-8.53183 L 20.9996,-8.4977 L 20.9808,-8.46239 L 20.9653,-8.42605 L 20.9531,-8.38886 L 20.9442,-8.35097
 L 20.9386,-8.31255 L 20.9363,-8.27377 L 20.9373,-8.23479 L 20.9416,-8.19577 L 20.9493,-8.15689 L 20.9603,-8.1183
 L 20.9746,-8.08017 L 20.9922,-8.04267 L 21.0132,-8.00596 L 21.0375,-7.9702 L 21.0651,-7.93557 L 21.0961,-7.90222
 L 21.1414,-7.86223 L 21.1894,-7.82964 L 21.2395,-7.8042 L 21.2913,-7.7857 L 21.3441,-7.77389 L 21.3975,-7.76855
 z
M 2.35445,-5.94161 L 2.60836,-6.22822 L 2.7,-6.6 L 2.60836,-6.97178 L 2.35445,-7.25839 L 1.99643,-7.39417
 L 1.61632,-7.34801 L 1.30119,-7.1305 L 1.12325,-6.79145 L 1.12325,-6.40855 L 1.30119,-6.0695 L 1.61632,-5.85199
 L 1.99643,-5.80583 z
M 1.71459,-6.02937 L 1.41459,-6.24733 L 1.3,-6.6 L 1.41459,-6.95267 L 1.71459,-7.17063 L 2.08541,-7.17063
 L 2.38541,-6.95267 L 2.5,-6.6 L 2.38541,-6.24733 L 2.08541,-6.02937 z
M 0.045257,-1.90057 L 0.0466971,-1.9415 L 0.0481881,-2.01349 L 0.0497252,-2.11712 L 0.051303,-2.25297 L 0.0529167,-2.42161
 L 0.0544549,-2.61239 L 0.0558312,-2.81349 L 0.0570455,-3.02374 L 0.0580977,-3.24196 L 0.0589878,-3.467 L 0.0597156,-3.69768
 L 0.0602812,-3.93284 L 0.0606846,-4.17131 L 0.0609255,-4.41193 L 0.0610041,-4.65353 L 0.0609202,-4.89494 L 0.0606738,-5.13499
 L 0.0602649,-5.37252 L 0.0596933,-5.60636 L 0.0589591,-5.83535 L 0.0580621,-6.05831 L 0.0570024,-6.27409 L 0.0557799,-6.48151
 L 0.0543945,-6.6794 L 0.0528461,-6.86661 L 0.0512425,-7.03154 L 0.0496737,-7.16375 L 0.0481448,-7.26384 L 0.0466609,-7.3324
 L 0.0452272,-7.37001 L 0.0438488,-7.37726 L 0.0425308,-7.35474 L 0.0412784,-7.30305 L 0.0400967,-7.22277 L 0.0389908,-7.11449
 L 0.0379658,-6.9788 L 0.037027,-6.81629 L 0.0361794,-6.62754 L 0.0354281,-6.41316 L 0.0347784,-6.17372 L 0.0342352,-5.90982
 L 0.0338039,-5.62205 L 0.0334894,-5.311 L 0.033297,-4.97725 L 0.0332317,-4.62139 L 0.033297,-4.26568 L 0.0334895,-3.93238
 L 0.0338041,-3.62205 L 0.0342358,-3.33528 L 0.0347795,-3.07264 L 0.03543,-2.83471 L 0.0361824,-2.62207 L 0.0370315,-2.43529
 L 0.0379723,-2.27496 L 0.0389996,-2.14164 L 0.0401084,-2.03593 L 0.0412936,-1.95838 L 0.0425502,-1.90959 L 0.043873,-1.89013
 z
M 25.2823,-5.92674 L 25.4955,-5.92702 L 25.688,-5.92759 L 25.8609,-5.92854 L 26.0154,-5.92995 L 26.1527,-5.93191
 L 26.2739,-5.9345 L 26.3802,-5.93782 L 26.4727,-5.94195 L 26.5526,-5.94698 L 26.6211,-5.95298 L 26.6794,-5.96006
 L 26.7285,-5.96829 L 26.7697,-5.97775 L 26.804,-5.98855 L 26.8328,-6.00076 L 26.8571,-6.01447 L 26.8781,-6.02976
 L 26.897,-6.04673 L 26.9148,-6.06545 L 26.9321,-6.08473 L 26.9474,-6.10258 L 26.9607,-6.11935 L 26.9719,-6.13535
 L 26.981,-6.15093 L 26.9878,-6.16642 L 26.9924,-6.18215 L 26.9946,-6.19844 L 26.9944,-6.21564 L 26.9917,-6.23408
 L 26.9864,-6.25408 L 26.9785,-6.27597 L 26.968,-6.3001 L 26.9546,-6.32679 L 26.9384,-6.35638 L 26.9193,-6.38919
 L 26.8973,-6.42556 L 26.8722,-6.46582 L 26.844,-6.5103 L 26.8126,-6.55934 L 26.5848,-6.91444 L 23.5693,-6.91444
 L 23.3223,-6.54763 L 23.2894,-6.49855 L 23.2597,-6.45381 L 23.2332,-6.41312 L 23.2097,-6.37618 L 23.1893,-6.3427
 L 23.1718,-6.31238 L 23.1572,-6.28492 L 23.1453,-6.26003 L 23.1361,-6.2374 L 23.1296,-6.21676 L 23.1255,-6.19779
 L 23.1239,-6.1802 L 23.1247,-6.1637 L 23.1278,-6.14799 L 23.1331,-6.13277 L 23.1406,-6.11775 L 23.1501,-6.10264
 L 23.1616,-6.08713 L 23.175,-6.07093 L 23.1902,-6.05374 L 23.2065,-6.03713 L 23.2248,-6.02203 L 23.246,-6.00835
 L 23.2711,-5.99603 L 23.3013,-5.98501 L 23.3374,-5.9752 L 23.3805,-5.96654 L 23.4318,-5.95896 L 23.4921,-5.95239
 L 23.5625,-5.94676 L 23.644,-5.94199 L 23.7376,-5.93803 L 23.8445,-5.93479 L 23.9655,-5.93222 L 24.1018,-5.93023
 L 24.2543,-5.92876 L 24.4241,-5.92774 L 24.6121,-5.9271 L 24.8195,-5.92676 L 25.0472,-5.92667 z
M 33.4594,-5.92676 L 33.6668,-5.9271 L 33.8548,-5.92774 L 34.0246,-5.92876 L 34.1771,-5.93023 L 34.3134,-5.93222
 L 34.4344,-5.93479 L 34.5412,-5.93803 L 34.6349,-5.94199 L 34.7164,-5.94676 L 34.7868,-5.95239 L 34.8471,-5.95896
 L 34.8983,-5.96654 L 34.9415,-5.9752 L 34.9776,-5.98501 L 35.0078,-5.99603 L 35.0329,-6.00835 L 35.0541,-6.02203
 L 35.0723,-6.03713 L 35.0887,-6.05374 L 35.1039,-6.07093 L 35.1173,-6.08713 L 35.1288,-6.10264 L 35.1383,-6.11775
 L 35.1457,-6.13277 L 35.1511,-6.14799 L 35.1541,-6.1637 L 35.1549,-6.1802 L 35.1534,-6.19779 L 35.1493,-6.21676
 L 35.1428,-6.2374 L 35.1336,-6.26003 L 35.1217,-6.28492 L 35.1071,-6.31238 L 35.0896,-6.3427 L 35.0692,-6.37618
 L 35.0457,-6.41312 L 35.0192,-6.45381 L 34.9895,-6.49855 L 34.9566,-6.54763 L 34.7096,-6.91444 L 31.6941,-6.91444
 L 31.4663,-6.55934 L 31.4349,-6.5103 L 31.4067,-6.46582 L 31.3816,-6.42556 L 31.3595,-6.38919 L 31.3405,-6.35638
 L 31.3243,-6.32679 L 31.3109,-6.3001 L 31.3003,-6.27597 L 31.2925,-6.25408 L 31.2872,-6.23408 L 31.2845,-6.21564
 L 31.2843,-6.19844 L 31.2865,-6.18215 L 31.2911,-6.16642 L 31.2979,-6.15093 L 31.307,-6.13535 L 31.3182,-6.11935
 L 31.3315,-6.10258 L 31.3468,-6.08473 L 31.3641,-6.06545 L 31.3819,-6.04673 L 31.4008,-6.02976 L 31.4218,-6.01447
 L 31.4461,-6.00076 L 31.4748,-5.98855 L 31.5092,-5.97775 L 31.5504,-5.96829 L 31.5995,-5.96006 L 31.6578,-5.95298
 L 31.7263,-5.94698 L 31.8062,-5.94195 L 31.8987,-5.93782 L 32.005,-5.9345 L 32.1262,-5.93191 L 32.2635,-5.92995
 L 32.418,-5.92854 L 32.5909,-5.92759 L 32.7834,-5.92702 L 32.9966,-5.92674 L 33.2317,-5.92667 z
M 9.04716,-5.92676 L 9.25454,-5.9271 L 9.44261,-5.92774 L 9.61238,-5.92876 L 9.76488,-5.93023 L 9.90114,-5.93222
 L 10.0222,-5.93479 L 10.129,-5.93803 L 10.2227,-5.94199 L 10.3042,-5.94676 L 10.3746,-5.95239 L 10.4349,-5.95896
 L 10.4861,-5.96654 L 10.5293,-5.9752 L 10.5654,-5.98501 L 10.5955,-5.99603 L 10.6207,-6.00835 L 10.6419,-6.02203
 L 10.6601,-6.03713 L 10.6765,-6.05374 L 10.6917,-6.07093 L 10.7051,-6.08713 L 10.7166,-6.10264 L 10.7261,-6.11775
 L 10.7335,-6.13277 L 10.7388,-6.14799 L 10.7419,-6.1637 L 10.7427,-6.1802 L 10.7411,-6.19779 L 10.7371,-6.21676
 L 10.7305,-6.2374 L 10.7214,-6.26003 L 10.7095,-6.28492 L 10.6949,-6.31238 L 10.6774,-6.3427 L 10.6569,-6.37618
 L 10.6335,-6.41312 L 10.607,-6.45381 L 10.5773,-6.49855 L 10.5444,-6.54763 L 10.2974,-6.91444 L 8.82848,-6.91444
 L 8.64014,-6.91434 L 8.46816,-6.91396 L 8.31173,-6.91327 L 8.17005,-6.91219 L 8.04232,-6.91066 L 7.92773,-6.90862
 L 7.82549,-6.906 L 7.73478,-6.90274 L 7.65482,-6.89878 L 7.58479,-6.89406 L 7.5239,-6.88851 L 7.47134,-6.88207
 L 7.42632,-6.87468 L 7.38802,-6.86627 L 7.35565,-6.85679 L 7.32841,-6.84616 L 7.30549,-6.83433 L 7.2861,-6.82123
 L 7.26942,-6.8068 L 7.25466,-6.79097 L 7.24555,-6.7801 L 7.23557,-6.76794 L 7.22482,-6.75457 L 7.21334,-6.7401
 L 7.20123,-6.72462 L 7.18853,-6.70822 L 7.17533,-6.69099 L 7.16169,-6.67302 L 7.14769,-6.65442 L 7.13339,-6.63527
 L 7.11886,-6.61567 L 7.10417,-6.59572 L 7.08939,-6.5755 L 7.07459,-6.5551 L 7.05985,-6.53463 L 7.04522,-6.51418
 L 7.03078,-6.49383 L 7.01661,-6.47369 L 7.00276,-6.45384 L 6.9893,-6.43438 L 6.96738,-6.4024 L 6.94772,-6.37328
 L 6.93029,-6.34681 L 6.91508,-6.32272 L 6.90205,-6.30077 L 6.89119,-6.28073 L 6.88247,-6.26236 L 6.87587,-6.24539
 L 6.87136,-6.22961 L 6.86893,-6.21475 L 6.86854,-6.20059 L 6.87017,-6.18687 L 6.8738,-6.17335 L 6.8794,-6.15979
 L 6.88696,-6.14595 L 6.89644,-6.13158 L 6.90783,-6.11644 L 6.9211,-6.10028 L 6.93622,-6.08288 L 6.95318,-6.06397
 L 6.97085,-6.04551 L 6.98961,-6.02878 L 7.01061,-6.01369 L 7.03499,-6.00016 L 7.0639,-5.9881 L 7.09848,-5.97743
 L 7.13988,-5.96807 L 7.18924,-5.95992 L 7.24771,-5.95291 L 7.31643,-5.94695 L 7.39654,-5.94196 L 7.48921,-5.93785
 L 7.59555,-5.93454 L 7.71674,-5.93195 L 7.8539,-5.92998 L 8.00818,-5.92856 L 8.18073,-5.92761 L 8.3727,-5.92703
 L 8.58522,-5.92674 L 8.81944,-5.92667 z
M 17.1682,-5.92674 L 17.3812,-5.92702 L 17.5736,-5.9276 L 17.7464,-5.92855 L 17.9009,-5.92996 L 18.0381,-5.93192
 L 18.1593,-5.93452 L 18.2656,-5.93784 L 18.3582,-5.94197 L 18.4382,-5.94699 L 18.5067,-5.95298 L 18.565,-5.96004
 L 18.6142,-5.96825 L 18.6554,-5.9777 L 18.6899,-5.98846 L 18.7187,-6.00063 L 18.743,-6.0143 L 18.764,-6.02954
 L 18.7828,-6.04644 L 18.8007,-6.0651 L 18.8178,-6.08433 L 18.8331,-6.10211 L 18.8463,-6.11878 L 18.8574,-6.13466
 L 18.8663,-6.15005 L 18.8729,-6.16528 L 18.8772,-6.18068 L 18.8791,-6.19656 L 18.8784,-6.21324 L 18.8752,-6.23104
 L 18.8693,-6.25029 L 18.8606,-6.2713 L 18.8492,-6.2944 L 18.8348,-6.3199 L 18.8175,-6.34813 L 18.7971,-6.3794
 L 18.7735,-6.41404 L 18.7468,-6.45236 L 18.7167,-6.49469 L 18.6833,-6.54135 L 18.4408,-6.87917 L 16.9584,-6.89815
 L 16.7655,-6.90053 L 16.5897,-6.90244 L 16.4301,-6.90384 L 16.286,-6.90466 L 16.1563,-6.90484 L 16.0403,-6.90433
 L 15.9372,-6.90306 L 15.8459,-6.90099 L 15.7658,-6.89806 L 15.6959,-6.8942 L 15.6353,-6.88937 L 15.5832,-6.8835
 L 15.5388,-6.87653 L 15.5012,-6.86841 L 15.4695,-6.85908 L 15.4429,-6.84849 L 15.4204,-6.83657 L 15.4013,-6.82328
 L 15.3847,-6.80854 L 15.3698,-6.79231 L 15.3605,-6.78134 L 15.3505,-6.76907 L 15.3396,-6.7556 L 15.3281,-6.74103
 L 15.3159,-6.72545 L 15.3031,-6.70896 L 15.2898,-6.69164 L 15.2761,-6.67359 L 15.262,-6.6549 L 15.2476,-6.63568
 L 15.233,-6.61601 L 15.2183,-6.59599 L 15.2035,-6.5757 L 15.1886,-6.55526 L 15.1738,-6.53474 L 15.1592,-6.51425
 L 15.1447,-6.49387 L 15.1305,-6.47371 L 15.1166,-6.45385 L 15.1032,-6.43438 L 15.0813,-6.4024 L 15.0616,-6.37328
 L 15.0442,-6.34681 L 15.029,-6.32272 L 15.0159,-6.30077 L 15.0051,-6.28073 L 14.9964,-6.26236 L 14.9898,-6.24539
 L 14.9853,-6.22961 L 14.9828,-6.21475 L 14.9824,-6.20059 L 14.9841,-6.18687 L 14.9877,-6.17335 L 14.9933,-6.15979
 L 15.0008,-6.14595 L 15.0103,-6.13158 L 15.0217,-6.11644 L 15.035,-6.10028 L 15.0501,-6.08288 L 15.0671,-6.06397
 L 15.0847,-6.04551 L 15.1035,-6.02878 L 15.1245,-6.01369 L 15.1489,-6.00016 L 15.1778,-5.9881 L 15.2124,-5.97743
 L 15.2538,-5.96807 L 15.3031,-5.95992 L 15.3616,-5.95291 L 15.4303,-5.94695 L 15.5104,-5.94196 L 15.6031,-5.93785
 L 15.7094,-5.93454 L 15.8306,-5.93195 L 15.9678,-5.92998 L 16.1221,-5.92856 L 16.2946,-5.92761 L 16.4866,-5.92703
 L 16.6991,-5.92674 L 16.9333,-5.92667 z
" stroke="black" fill="lightgray" stroke-width="0.5"/>
</svg>
