G04 MADE WITH FRITZING*
G04 WWW.FRITZING.ORG*
G04 DOUBLE SIDED*
G04 HOLES PLATED*
G04 CONTOUR ON CENTER OF CONTOUR VECTOR*
%ASAXBY*%
%FSLAX23Y23*%
%MOIN*%
%OFA0B0*%
%SFA1.0B1.0*%
%ADD10C,0.059200*%
%ADD11C,0.085000*%
%ADD12C,0.074667*%
%ADD13C,0.074695*%
%ADD14C,0.124033*%
%ADD15C,0.070000*%
%ADD16C,0.039370*%
%ADD17C,0.080000*%
%ADD18C,0.075000*%
%ADD19C,0.078000*%
%ADD20R,0.080000X0.080000*%
%ADD21R,0.078000X0.078000*%
%ADD22C,0.024000*%
%ADD23C,0.013600*%
%ADD24C,0.017000*%
%ADD25C,0.020000*%
%LNCOPPER0*%
G90*
G70*
G54D10*
X184Y2853D03*
X184Y2617D03*
X184Y2695D03*
X184Y2774D03*
G54D11*
X972Y567D03*
X775Y567D03*
X775Y75D03*
X972Y75D03*
G54D12*
X489Y1983D03*
X489Y2083D03*
G54D13*
X489Y2183D03*
G54D14*
X194Y1889D03*
X194Y2277D03*
G54D12*
X1316Y2183D03*
X1316Y2083D03*
G54D13*
X1316Y1983D03*
G54D14*
X1611Y2277D03*
X1611Y1889D03*
G54D15*
X194Y1011D03*
X294Y1011D03*
X394Y1011D03*
X494Y1011D03*
X594Y1011D03*
X694Y1011D03*
X794Y1011D03*
X894Y1011D03*
X994Y1011D03*
X1094Y1011D03*
X1194Y1011D03*
X1294Y1011D03*
X1394Y1011D03*
X1494Y1011D03*
X1594Y1011D03*
X194Y1611D03*
X294Y1611D03*
X394Y1611D03*
X494Y1611D03*
X594Y1611D03*
X694Y1611D03*
X794Y1611D03*
X894Y1611D03*
X994Y1611D03*
X1094Y1611D03*
X1194Y1611D03*
X1294Y1611D03*
X1394Y1611D03*
X1494Y1611D03*
X1594Y1611D03*
X98Y1211D03*
X198Y1211D03*
X98Y1311D03*
X198Y1311D03*
X98Y1411D03*
X198Y1411D03*
G54D16*
X488Y2614D03*
G54D17*
X135Y646D03*
X135Y784D03*
X1670Y804D03*
X1670Y666D03*
X1670Y528D03*
G54D16*
X432Y665D03*
G54D18*
X1475Y784D03*
X1375Y784D03*
X839Y784D03*
X1139Y784D03*
X1257Y789D03*
X1257Y489D03*
G54D19*
X1493Y293D03*
X1493Y193D03*
G54D16*
X726Y664D03*
G54D20*
X1670Y804D03*
G54D21*
X1493Y293D03*
G54D22*
X786Y2730D02*
X786Y1786D01*
D02*
X786Y1786D02*
X793Y1640D01*
D02*
X211Y2772D02*
X786Y2730D01*
D02*
X902Y2791D02*
X902Y1730D01*
D02*
X902Y1730D02*
X896Y1640D01*
D02*
X218Y2850D02*
X902Y2791D01*
D02*
X74Y2554D02*
X74Y1493D01*
D02*
X195Y1493D02*
X311Y1432D01*
D02*
X74Y1493D02*
X195Y1493D01*
D02*
X160Y2603D02*
X74Y2554D01*
D02*
X311Y1432D02*
X311Y1256D01*
D02*
X311Y1256D02*
X225Y1222D01*
D02*
X432Y134D02*
X432Y646D01*
D02*
X432Y684D02*
X432Y902D01*
D02*
X432Y902D02*
X480Y985D01*
D02*
X549Y74D02*
X432Y134D01*
D02*
X740Y75D02*
X549Y74D01*
D02*
X549Y250D02*
X549Y902D01*
D02*
X549Y902D02*
X583Y984D01*
D02*
X963Y250D02*
X549Y250D01*
D02*
X970Y110D02*
X963Y250D01*
D02*
X311Y2675D02*
X311Y1850D01*
D02*
X311Y1850D02*
X488Y1730D01*
D02*
X211Y2691D02*
X311Y2675D01*
D02*
X488Y1730D02*
X492Y1640D01*
D02*
X311Y2675D02*
X470Y2620D01*
D02*
X211Y2691D02*
X311Y2675D01*
D02*
X1081Y2087D02*
X1079Y1730D01*
D02*
X1079Y1730D02*
X1090Y1640D01*
D02*
X1284Y2084D02*
X1081Y2087D01*
D02*
X786Y963D02*
X786Y841D01*
D02*
X786Y841D02*
X819Y805D01*
D02*
X789Y982D02*
X786Y963D01*
D02*
X1639Y800D02*
X1503Y787D01*
D02*
X1228Y787D02*
X1167Y785D01*
D02*
X1285Y787D02*
X1346Y785D01*
D02*
X1437Y487D02*
X1285Y488D01*
D02*
X1646Y647D02*
X1437Y487D01*
D02*
X432Y1493D02*
X432Y1195D01*
D02*
X432Y1195D02*
X74Y1079D01*
D02*
X195Y1554D02*
X432Y1493D01*
D02*
X74Y1079D02*
X74Y902D01*
D02*
X194Y1582D02*
X195Y1554D01*
D02*
X74Y902D02*
X311Y902D01*
D02*
X311Y902D02*
X311Y783D01*
D02*
X311Y783D02*
X159Y665D01*
D02*
X1257Y460D02*
X1259Y190D01*
D02*
X1259Y190D02*
X1463Y193D01*
D02*
X1667Y368D02*
X1521Y305D01*
D02*
X1670Y497D02*
X1667Y368D01*
D02*
X745Y664D02*
X1639Y666D01*
D02*
X667Y2376D02*
X667Y2027D01*
D02*
X667Y2027D02*
X520Y1991D01*
D02*
X499Y2599D02*
X667Y2376D01*
G54D23*
X161Y2876D02*
X207Y2876D01*
X207Y2830D01*
X161Y2830D01*
X161Y2876D01*
D02*
G54D24*
X167Y1037D02*
X220Y1037D01*
X220Y984D01*
X167Y984D01*
X167Y1037D01*
D02*
G54D25*
X105Y616D02*
X105Y676D01*
X165Y676D01*
X165Y616D01*
X105Y616D01*
D02*
X1447Y756D02*
X1447Y811D01*
X1502Y811D01*
X1502Y756D01*
X1447Y756D01*
D02*
G04 End of Copper0*
M02*
