G04 MADE WITH FRITZING*
G04 WWW.FRITZING.ORG*
G04 DOUBLE SIDED*
G04 HOLES PLATED*
G04 CONTOUR ON CENTER OF CONTOUR VECTOR*
%ASAXBY*%
%FSLAX23Y23*%
%MOIN*%
%OFA0B0*%
%SFA1.0B1.0*%
%ADD10C,0.069200*%
%ADD11C,0.095000*%
%ADD12C,0.084667*%
%ADD13C,0.084695*%
%ADD14C,0.134033*%
%ADD15C,0.080000*%
%ADD16C,0.049370*%
%ADD17C,0.085000*%
%ADD18C,0.090000*%
%ADD19C,0.088000*%
%ADD20C,0.135984*%
%ADD21R,0.090000X0.090000*%
%ADD22R,0.088000X0.088000*%
%ADD23C,0.023600*%
%ADD24C,0.027000*%
%ADD25C,0.030000*%
%LNMASK1*%
G90*
G70*
G54D10*
X184Y2853D03*
X184Y2617D03*
X184Y2695D03*
X184Y2774D03*
G54D11*
X972Y567D03*
X775Y567D03*
X775Y75D03*
X972Y75D03*
X972Y567D03*
X775Y567D03*
X775Y75D03*
X972Y75D03*
G54D12*
X489Y1983D03*
X489Y2083D03*
G54D13*
X489Y2183D03*
G54D14*
X194Y1889D03*
X194Y2277D03*
G54D12*
X1316Y2183D03*
X1316Y2083D03*
G54D13*
X1316Y1983D03*
G54D14*
X1611Y2277D03*
X1611Y1889D03*
G54D15*
X194Y1011D03*
X294Y1011D03*
X394Y1011D03*
X494Y1011D03*
X594Y1011D03*
X694Y1011D03*
X794Y1011D03*
X894Y1011D03*
X994Y1011D03*
X1094Y1011D03*
X1194Y1011D03*
X1294Y1011D03*
X1394Y1011D03*
X1494Y1011D03*
X1594Y1011D03*
X194Y1611D03*
X294Y1611D03*
X394Y1611D03*
X494Y1611D03*
X594Y1611D03*
X694Y1611D03*
X794Y1611D03*
X894Y1611D03*
X994Y1611D03*
X1094Y1611D03*
X1194Y1611D03*
X1294Y1611D03*
X1394Y1611D03*
X1494Y1611D03*
X1594Y1611D03*
X98Y1211D03*
X198Y1211D03*
X98Y1311D03*
X198Y1311D03*
X98Y1411D03*
X198Y1411D03*
G54D16*
X488Y2614D03*
X432Y665D03*
G54D17*
X1475Y784D03*
X1375Y784D03*
X839Y784D03*
X1139Y784D03*
X1257Y789D03*
X1257Y489D03*
G54D18*
X135Y646D03*
X135Y784D03*
X1670Y804D03*
X1670Y666D03*
X1670Y528D03*
G54D19*
X1493Y293D03*
X1493Y193D03*
G54D16*
X726Y664D03*
G54D20*
X1685Y2748D03*
G54D21*
X1670Y804D03*
G54D22*
X1493Y293D03*
G54D23*
G36*
X161Y2876D02*
X207Y2876D01*
X207Y2830D01*
X161Y2830D01*
X161Y2876D01*
G37*
D02*
G54D24*
G36*
X167Y1037D02*
X220Y1037D01*
X220Y984D01*
X167Y984D01*
X167Y1037D01*
G37*
D02*
G54D25*
G36*
X1447Y756D02*
X1447Y811D01*
X1502Y811D01*
X1502Y756D01*
X1447Y756D01*
G37*
D02*
G36*
X105Y616D02*
X105Y676D01*
X165Y676D01*
X165Y616D01*
X105Y616D01*
G37*
D02*
G04 End of Mask1*
M02*