; NON-PLATED HOLES START AT T1
; THROUGH (PLATED) HOLES START AT T100
M48
INCH
T1C0.125984
T100C0.047244
T101C0.036000
T102C0.032000
T103C0.041361
T104C0.035000
T105C0.038000
T106C0.041333
T107C0.040000
T108C0.088356
T109C0.015748
%
T1
X016848Y027475
T100
X007748Y000752
X007748Y005673
X009716Y000752
X009716Y005673
T101
X012938Y010106
X003938Y016106
X002938Y010106
X014938Y010106
X005938Y016106
X000982Y014111
X008938Y010106
X012938Y016106
X006938Y010106
X005938Y010106
X001938Y010106
X015938Y016106
X001982Y012109
X000982Y013109
X007938Y010106
X015938Y010106
X001938Y016106
X000982Y012109
X014938Y016106
X009938Y016106
X009938Y010106
X011938Y016106
X003938Y010106
X011938Y010106
X001982Y014111
X004938Y016106
X004938Y010106
X010938Y010106
X007938Y016106
X013938Y016106
X001982Y013109
X002938Y016106
X013938Y010106
X008938Y016106
X010938Y016106
X006938Y016106
T102
X001837Y027741
X001837Y026954
X001837Y026166
X001837Y028529
T103
X004891Y021831
X013159Y019831
T104
X013749Y007839
X012568Y004886
X012568Y007886
X011387Y007839
X014749Y007839
X008387Y007839
T105
X014930Y002933
X014930Y001933
T106
X013159Y021831
X004891Y020831
X013159Y020831
X004891Y019831
T107
X016702Y006658
X001348Y007839
X001348Y006461
X016702Y008035
X016702Y005280
T108
X016112Y018889
X001938Y022772
X001938Y018889
X016112Y022772
T109
X004324Y006646
X007259Y006644
X004880Y026142
T00
M30
